<svg version="1.1" id="Layer_1" xmlns="http://www.w3.org/2000/svg" xmlns:xlink="http://www.w3.org/1999/xlink" x="0px" y="0px"
	 width="100%" viewBox="0 0 1024 1024" enable-background="new 0 0 1024 1024" xml:space="preserve">
<path fill="#0B0814" opacity="1.000000" stroke="none" 
	d="
M675.000000,1025.000000 
	C450.000000,1025.000000 225.500000,1025.000000 1.000000,1025.000000 
	C1.000000,683.666687 1.000000,342.333344 1.000000,1.000000 
	C342.333344,1.000000 683.666687,1.000000 1025.000000,1.000000 
	C1025.000000,342.333344 1025.000000,683.666687 1025.000000,1025.000000 
	C908.500000,1025.000000 792.000000,1025.000000 675.000000,1025.000000 
M703.919556,364.267517 
	C704.122253,363.966492 704.324951,363.665466 704.438599,363.461884 
	C704.438599,363.461884 704.542908,363.542816 705.019836,363.216522 
	C705.525513,362.644226 706.031189,362.071960 706.474915,361.425232 
	C706.474915,361.425232 706.407837,361.495239 706.906616,361.221405 
	C707.093750,360.898071 707.280884,360.574707 707.401306,360.348969 
	C707.401306,360.348969 707.503479,360.408447 708.016174,360.041962 
	C709.090149,358.726898 710.164185,357.411865 711.645569,355.896118 
	C711.881470,355.681793 712.014282,355.415985 712.395325,354.971893 
	C712.395325,354.971893 712.763123,354.905853 713.412842,354.741028 
	C713.967163,353.848328 714.521423,352.955627 715.692078,351.737976 
	C716.073486,350.928772 716.454895,350.119598 716.958801,348.765594 
	C717.382385,348.159271 717.805969,347.552948 718.497437,346.612396 
	C718.663086,346.379517 718.819031,346.140350 719.093140,345.215393 
	C720.732300,342.142944 722.371521,339.070526 724.613586,335.802460 
	C724.982849,334.493408 725.352173,333.184326 725.834290,331.251831 
	C726.184021,330.505737 726.533752,329.759674 727.545044,328.765594 
	C729.670715,326.127747 731.648560,323.454834 729.705627,319.204895 
	C729.837891,318.801147 729.970154,318.397430 730.646179,317.780060 
	C730.418823,316.860168 730.191467,315.940277 729.449951,314.890289 
	C729.273254,314.895081 729.096497,314.899902 728.127502,314.583679 
	C710.366333,314.590149 692.604980,314.632812 674.843994,314.587555 
	C666.224976,314.565582 657.606384,314.378967 648.710693,313.873901 
	C647.810547,314.001770 646.910339,314.129608 645.106201,314.519531 
	C638.068115,314.428986 631.030090,314.338440 623.774780,313.930145 
	C623.185120,314.037231 622.595398,314.144318 621.349182,314.494507 
	C620.896912,314.413483 620.444702,314.332489 619.478760,313.749817 
	C618.365479,313.500305 617.252380,313.033539 616.138916,313.032623 
	C571.990234,312.996155 527.841492,312.981873 483.693024,313.084229 
	C482.123566,313.087860 480.556915,314.299530 478.409729,315.210297 
	C477.991364,315.235840 477.572968,315.261383 476.663635,314.854736 
	C475.109497,315.219025 473.555328,315.583313 471.455292,316.254456 
	C471.049530,316.335632 470.643799,316.416840 469.682800,315.973999 
	C467.112335,316.671204 464.541870,317.368439 461.373993,318.521820 
	C459.662445,318.891602 457.950928,319.261414 455.754944,319.134521 
	C452.159210,320.469757 448.563446,321.804993 444.456940,323.638947 
	C428.037170,329.124725 415.465698,340.431732 402.371887,351.328247 
	C402.371887,351.328247 402.339081,351.562683 401.843506,351.949127 
	C399.389771,354.698181 396.936035,357.447266 394.227844,360.276031 
	C394.227844,360.276031 394.201874,360.541412 393.783417,360.958282 
	C392.820251,362.227814 391.857086,363.497314 390.779205,364.782013 
	C390.779205,364.782013 390.786133,364.897522 390.287994,365.223114 
	C390.098755,365.785980 389.909515,366.348877 389.680664,366.554779 
	C389.680664,366.554779 389.323273,366.590576 389.022095,366.844482 
	C388.727631,367.510803 388.433167,368.177124 387.931000,369.534363 
	C385.952606,372.059814 383.974182,374.585266 381.611969,377.547546 
	C381.209717,378.217621 380.807465,378.887695 380.416931,379.624634 
	C380.416931,379.624634 380.482391,379.606567 380.008392,380.083160 
	C375.473541,389.444580 370.549103,398.640747 366.492065,408.204865 
	C359.847931,423.867889 356.040253,440.219788 357.233032,457.391876 
	C357.887604,466.816010 359.310242,476.104462 364.798706,484.053375 
	C364.798706,484.053375 364.668365,484.094849 364.661926,484.804016 
	C365.460785,486.185730 366.259644,487.567444 367.164062,489.576447 
	C368.109955,490.644470 369.055878,491.712494 370.548492,493.104309 
	C371.349243,494.080719 372.149963,495.057129 372.953156,496.646912 
	C373.542694,497.194702 374.132233,497.742523 374.981964,497.998718 
	C374.981964,497.998718 374.714813,498.285370 375.002686,498.840576 
	C375.963104,499.634125 376.923553,500.427673 378.069031,501.641418 
	C378.267487,501.900269 378.528900,502.046844 379.248138,502.631378 
	C383.215820,505.045929 387.045135,507.733276 391.174927,509.828247 
	C409.977966,519.366699 430.304810,520.792480 451.840057,520.847717 
	C491.936127,520.901367 532.032959,520.822144 572.127930,521.060303 
	C594.819763,521.195007 617.302429,523.134399 638.690674,531.683167 
	C638.690674,531.683167 638.706421,531.691528 639.132690,531.981201 
	C639.608154,532.178650 640.083679,532.376160 640.672485,532.524109 
	C640.672485,532.524109 640.620056,532.412109 640.896973,532.836914 
	C641.213196,532.933411 641.529480,533.029846 642.254700,533.649841 
	C644.152771,534.780334 646.050903,535.910828 648.252380,537.527100 
	C648.831726,538.027405 649.411133,538.527710 650.009033,539.006104 
	C650.009033,539.006104 649.981201,539.006042 649.874268,539.685486 
	C642.894958,550.007080 634.896484,559.389038 624.916077,566.890442 
	C624.916077,566.890442 624.946289,566.795288 624.423035,567.003052 
	C624.245178,567.325195 624.067322,567.647400 623.361877,568.137207 
	C622.873352,568.656006 622.384827,569.174805 621.144714,569.871765 
	C617.440125,571.269836 613.735474,572.667847 609.531067,573.728027 
	C608.588379,573.869690 607.604858,573.884766 606.709412,574.173157 
	C599.830505,576.388611 593.110596,579.414001 586.068726,580.733521 
	C575.218018,582.766785 564.143372,583.590332 553.183044,585.070496 
	C551.732300,585.266418 550.395203,586.304199 548.226318,587.142639 
	C547.162720,587.133301 546.099182,587.124023 544.577271,586.728882 
	C543.696838,586.879150 542.816406,587.029419 541.244751,587.416931 
	C540.525940,587.347473 539.807068,587.277954 538.399963,586.710876 
	C536.443481,586.471985 534.487244,586.026855 532.530457,586.024780 
	C494.260010,585.984009 455.987854,585.788757 417.719757,586.092834 
	C401.565369,586.221252 386.209656,590.657593 371.572327,597.431213 
	C370.531403,597.912903 369.904114,599.288452 368.626831,600.754028 
	C362.736694,604.807617 356.846558,608.861267 350.331787,613.182800 
	C347.214142,615.815491 344.096527,618.448181 340.442841,621.081848 
	C340.229156,621.360352 340.015472,621.638916 339.291138,622.128174 
	C338.831451,622.690735 338.371735,623.253357 337.312164,624.124878 
	C334.824677,627.000549 332.337189,629.876221 329.878052,632.816040 
	C329.878052,632.816040 329.931122,632.770264 329.401276,632.996704 
	C329.211914,633.322754 329.022583,633.648743 328.920746,633.945740 
	C328.920746,633.945740 328.889404,633.859070 328.337280,634.183105 
	C327.486359,635.395081 326.635437,636.607056 325.936096,637.950562 
	C325.936096,637.950562 325.811584,637.793213 325.249512,638.162109 
	C323.528351,640.774597 321.807159,643.387085 319.612915,646.464478 
	C319.132385,647.642883 318.651886,648.821228 317.909973,650.599854 
	C317.253479,651.706055 316.597015,652.812317 315.304321,654.156006 
	C314.159668,656.146057 312.633820,658.010742 311.931366,660.146301 
	C306.831024,675.651367 301.888306,691.208313 296.927979,706.759155 
	C296.575378,707.864563 296.479614,709.051819 296.264465,710.201050 
	C296.881805,710.668396 297.499146,711.135742 298.116486,711.603088 
	C299.545410,709.667786 300.974335,707.732544 302.674072,705.726074 
	C302.674072,705.726074 302.771271,705.463501 303.260925,705.084045 
	C304.930206,703.416992 306.599487,701.749939 308.758179,699.889465 
	C309.204407,699.360474 309.650604,698.831421 310.697266,697.994019 
	C312.170868,696.360779 313.644501,694.727539 315.068451,693.031189 
	C315.068451,693.031189 315.005768,693.081299 315.546448,692.940430 
	C315.724731,692.628357 315.903015,692.316284 316.001251,691.993408 
	C316.001251,691.993408 315.989960,692.073364 316.563751,691.993347 
	C316.793427,691.729187 317.023102,691.465088 317.167206,691.509216 
	C317.167206,691.509216 317.474792,691.597412 317.964111,691.295959 
	C318.325989,690.875305 318.687866,690.454590 319.001221,690.001282 
	C319.001221,690.001282 319.034485,690.049438 319.519012,689.850891 
	C319.879822,689.463379 320.240631,689.075867 320.759155,688.694763 
	C320.759155,688.694763 320.792297,688.540405 321.091644,688.334717 
	C321.285675,688.183411 321.447601,688.003235 321.795044,687.763489 
	C321.795044,687.763489 321.854736,687.551941 322.343262,687.195557 
	C323.714111,685.984253 325.084930,684.773010 326.381561,683.483765 
	C326.381561,683.483765 326.313232,683.566956 326.871918,683.317322 
	C327.295807,682.905334 327.719696,682.493347 328.073547,682.072876 
	C328.073547,682.072876 328.083984,682.142639 328.682800,681.905945 
	C329.841339,680.974487 330.999847,680.043030 332.088715,679.089355 
	C332.088715,679.089355 332.096344,679.162048 332.703217,678.996460 
	C333.526978,678.375854 334.350739,677.755310 335.101746,677.108276 
	C335.101746,677.108276 335.116913,677.184143 335.730591,677.034729 
	C336.489899,676.698303 337.249237,676.361877 338.501373,676.328369 
	C339.674194,675.545044 340.847015,674.761719 342.351929,673.750305 
	C342.568359,673.589844 342.772247,673.414856 343.368408,672.975281 
	C343.368408,672.975281 343.841736,672.927917 344.626740,672.937012 
	C345.765381,672.756653 346.953491,672.726685 348.034393,672.370972 
	C353.821411,670.466431 359.626007,668.599731 365.334137,666.476868 
	C368.640625,665.247253 371.776855,663.559937 375.571777,661.831604 
	C375.983734,661.752625 376.395660,661.673645 377.240997,662.036926 
	C378.156708,661.725342 379.072449,661.413757 380.597565,660.874329 
	C381.026001,660.827087 381.454437,660.779785 382.366730,661.266602 
	C383.882019,661.607117 385.423309,662.322021 386.907776,662.218933 
	C391.636902,661.890442 396.382355,661.471619 401.045502,660.654053 
	C403.446289,660.233154 405.685883,658.893066 408.630341,657.740601 
	C409.072815,657.770874 409.515320,657.801086 410.546906,658.338562 
	C412.774384,658.885010 415.000946,659.904053 417.229431,659.908264 
	C465.148621,659.999207 513.068176,660.023132 560.986877,659.851807 
	C563.659729,659.842285 566.326172,658.037476 569.604614,656.814880 
	C570.039612,656.808960 570.474670,656.803040 571.543213,657.276428 
	C572.488708,657.493347 573.539062,658.093750 574.363525,657.868164 
	C583.329163,655.415405 592.270752,652.871399 601.178650,650.217224 
	C601.933289,649.992371 602.397827,648.794067 603.478577,647.624023 
	C604.263855,647.302063 605.049133,646.980042 606.261902,646.989075 
	C606.796692,646.499939 607.331482,646.010803 608.184204,645.195801 
	C608.622131,645.089172 609.059998,644.982544 610.318542,644.907898 
	C612.215210,643.575195 614.111877,642.242493 616.289307,640.410339 
	C617.113281,639.961731 617.937256,639.513184 619.492554,638.956360 
	C620.293396,638.204956 621.094238,637.453613 622.189087,636.220154 
	C622.809570,635.815796 623.429993,635.411438 624.719116,634.922974 
	C625.424133,634.200989 626.129150,633.479065 626.834106,632.833069 
	C626.834106,632.833069 626.758423,632.826904 627.357910,632.798584 
	C627.891907,631.832642 628.425842,630.866638 629.230896,629.295715 
	C632.168640,626.457092 635.106323,623.618469 638.659241,620.669617 
	C639.930969,619.071960 641.202698,617.474304 642.761047,615.706787 
	C642.761047,615.706787 642.851685,615.386169 643.281982,615.023010 
	C643.905579,614.081909 644.529175,613.140808 645.201843,612.186096 
	C645.201843,612.186096 645.204285,612.135193 645.741272,611.799622 
	C646.685181,610.380981 647.629089,608.962402 648.991394,607.064209 
	C649.711304,605.753418 650.431274,604.442688 651.681396,602.743713 
	C652.171265,601.540710 652.661194,600.337646 653.693848,598.865906 
	C653.852173,598.296997 654.010559,597.728149 654.734924,596.873047 
	C655.350281,595.784363 655.965576,594.695618 656.951477,593.010620 
	C664.658630,577.556946 669.321350,561.248962 670.885498,543.159241 
	C670.991333,540.848633 671.172729,538.538574 671.190918,536.227234 
	C671.324524,519.255310 668.608887,503.016754 658.793945,488.380280 
	C658.793945,488.380280 658.580200,488.256409 658.276428,487.752106 
	C657.563721,486.828278 656.851013,485.904449 655.984680,484.461670 
	C655.715637,484.233093 655.446533,484.004486 654.979736,483.255432 
	C654.401978,482.828674 653.824280,482.401917 653.233154,481.889801 
	C653.233154,481.889801 653.147034,481.897095 652.994812,481.324402 
	C652.508728,480.727631 652.022644,480.130890 651.531250,479.515198 
	C651.531250,479.515198 651.530334,479.495453 651.150940,478.951508 
	C648.432068,476.618652 645.713196,474.285797 642.654236,471.451752 
	C641.795593,470.940063 640.937012,470.428375 640.039551,469.942871 
	C640.039551,469.942871 640.076477,469.915527 639.664917,469.385406 
	C633.442627,465.926666 627.220337,462.467957 620.776184,458.369690 
	C618.504578,457.612579 616.232910,456.855469 613.228821,456.019135 
	C611.149597,455.290466 609.070312,454.561768 606.731689,453.241486 
	C603.923950,450.247650 600.727844,449.164093 596.239380,451.274689 
	C595.824463,451.152679 595.409607,451.030670 594.671692,450.268066 
	C593.976868,449.870789 593.312378,449.198273 592.582642,449.117767 
	C582.764282,448.034912 572.946655,446.282074 563.109863,446.154388 
	C533.209717,445.766144 503.299591,445.832733 473.396881,446.106781 
	C462.174866,446.209625 450.962555,447.369720 439.631317,448.236389 
	C439.374847,448.309509 439.191345,448.238953 438.883972,447.205719 
	C436.197144,443.632843 433.542603,444.496307 430.256897,447.392548 
	C429.839691,447.271637 429.422485,447.150726 428.829926,446.353912 
	C424.096832,443.407684 419.000610,443.443329 413.146942,444.495758 
	C412.766937,444.319244 412.386963,444.142761 411.730774,443.326172 
	C408.074890,442.409912 404.419037,441.493652 400.133911,440.410583 
	C399.749603,440.209778 399.365295,440.009003 398.595276,439.532715 
	C398.324402,439.366913 398.047577,439.211700 397.888428,439.072449 
	C397.888428,439.072449 397.879578,439.195831 397.776764,438.677673 
	C397.138428,438.555389 396.500122,438.433075 395.225952,438.175568 
	C394.482117,437.751953 393.738281,437.328339 392.596527,436.596924 
	C392.302185,436.433563 392.007812,436.270172 391.847046,436.116791 
	C391.847046,436.116791 391.832001,436.249908 391.704193,435.566162 
	C389.804565,434.377441 387.904938,433.188721 385.831451,431.171509 
	C385.418671,429.494354 385.005890,427.817200 384.877319,425.563904 
	C389.604431,420.736511 394.331543,415.909119 399.722260,411.007538 
	C400.530548,410.368500 401.338867,409.729431 402.609711,409.052307 
	C402.609711,409.052307 403.051788,408.911072 403.753174,408.856598 
	C405.492737,407.887390 407.207947,406.871094 408.975647,405.956238 
	C429.403931,395.383575 451.641052,392.776581 474.057220,392.469116 
	C516.296997,391.889709 558.549011,392.197479 601.597046,392.391510 
	C630.605957,393.513031 659.168396,392.053070 686.322998,377.882812 
	C687.823059,376.829742 689.323120,375.776672 690.833313,374.804108 
	C690.833313,374.804108 690.752258,374.807434 691.482483,374.823334 
	C692.283508,374.105225 693.084473,373.387085 694.116089,372.279449 
	C694.360413,372.078888 694.640686,371.981018 695.638672,371.916748 
	C696.404236,371.220947 697.169800,370.525177 698.012634,369.430573 
	C698.012634,369.430573 698.146973,369.047241 698.596985,368.895233 
	C698.885925,368.729340 699.082275,368.488129 699.050293,368.038910 
	C699.050293,368.038910 699.162476,368.191956 699.732056,367.978607 
	C700.635132,367.175476 701.538269,366.372345 702.433472,365.497284 
	C702.433472,365.497284 702.362244,365.510376 702.871704,365.266632 
	C703.083862,364.962250 703.296021,364.657867 703.373291,364.406372 
	C703.373291,364.406372 703.438232,364.535797 703.919556,364.267517 
z"/>
<path fill="#059FCC" opacity="1.000000" stroke="none" 
	d="
M403.051788,408.911072 
	C403.051788,408.911072 402.609711,409.052307 402.052063,409.090729 
	C400.682465,409.779999 399.870544,410.430847 399.058655,411.081726 
	C394.331543,415.909119 389.604431,420.736511 384.468872,426.065552 
	C381.123047,428.319214 382.460754,430.064819 384.286194,432.015991 
	C385.044006,432.459747 385.583893,432.697510 386.349945,432.976990 
	C386.892578,433.151520 387.064911,433.388947 387.254944,433.949585 
	C387.634399,434.456787 387.851990,434.745453 388.008240,435.028503 
	C387.946899,435.022919 387.956635,434.900146 388.212585,435.083679 
	C389.059540,435.475006 389.650574,435.682831 390.214508,435.870178 
	C390.187408,435.849762 390.254395,435.835754 390.282776,436.175720 
	C393.559845,438.387756 396.597382,441.038544 400.096405,441.987213 
	C410.974609,444.936768 422.027863,447.240662 432.770691,450.060852 
	C421.270935,454.140289 410.080688,458.170074 398.731262,461.686279 
	C391.949493,463.787292 384.941528,465.189545 377.992065,466.708252 
	C372.337708,467.943878 366.619110,468.885559 360.911133,469.527466 
	C360.530029,462.083954 360.371552,455.052582 359.755737,448.061462 
	C358.829926,437.551208 361.294037,427.697784 365.275177,417.976624 
	C368.242249,416.865112 371.101898,416.176483 373.370514,414.624084 
	C383.168579,407.919128 392.711609,400.841400 402.511963,394.139862 
	C408.505585,390.041382 414.628876,386.069214 420.999878,382.602600 
	C428.404755,378.573517 436.342560,375.513611 443.693268,371.397644 
	C455.539307,364.764648 466.831390,357.110046 478.844330,350.816193 
	C491.318512,344.280609 504.284882,338.652313 517.195068,332.989960 
	C530.106445,327.327148 543.040833,321.643066 557.248596,319.726654 
	C558.984558,319.492493 560.465027,317.364410 562.525208,316.088409 
	C579.007202,316.062805 595.027832,316.062805 611.048523,316.062805 
	C611.098083,316.556458 611.147705,317.050110 611.197266,317.543762 
	C608.861450,318.677307 606.525635,319.810883 603.772705,320.961060 
	C602.522522,320.976898 601.689453,320.976074 600.554199,320.811920 
	C597.352539,321.142975 594.285461,321.191986 591.582397,322.208679 
	C579.821045,326.632385 568.185364,331.388824 556.462402,335.916656 
	C551.551270,337.813599 546.215759,338.847260 541.634644,341.315491 
	C531.484741,346.784088 521.759399,353.033997 511.731415,358.737610 
	C501.073486,364.799469 490.212891,370.504517 479.542175,376.544495 
	C472.301147,380.643127 465.273315,385.117340 458.061768,389.270172 
	C456.386078,390.235168 454.390228,390.758057 452.474152,391.171478 
	C445.077301,392.767517 437.625580,394.116302 430.250427,395.802795 
	C426.386261,396.686432 422.384979,397.581390 418.896790,399.357361 
	C413.414795,402.148499 408.313995,405.688293 403.051788,408.911072 
z"/>
<path fill="#00ADCA" opacity="1.000000" stroke="none" 
	d="
M562.063904,316.114014 
	C560.465027,317.364410 558.984558,319.492493 557.248596,319.726654 
	C543.040833,321.643066 530.106445,327.327148 517.195068,332.989960 
	C504.284882,338.652313 491.318512,344.280609 478.844330,350.816193 
	C466.831390,357.110046 455.539307,364.764648 443.693268,371.397644 
	C436.342560,375.513611 428.404755,378.573517 420.999878,382.602600 
	C414.628876,386.069214 408.505585,390.041382 402.511963,394.139862 
	C392.711609,400.841400 383.168579,407.919128 373.370514,414.624084 
	C371.101898,416.176483 368.242249,416.865112 365.402588,417.629272 
	C369.869507,406.299957 374.614471,395.303558 379.276276,384.272034 
	C379.894806,382.808350 380.090759,381.166107 380.482422,379.606567 
	C380.482391,379.606567 380.416931,379.624634 380.712219,379.564331 
	C381.336975,378.706299 381.666412,377.908508 381.995789,377.110718 
	C383.974182,374.585266 385.952606,372.059814 388.313965,369.080566 
	C388.905701,367.948029 389.114471,367.269318 389.323273,366.590576 
	C389.323273,366.590576 389.680664,366.554779 389.887878,366.505188 
	C390.325409,365.936249 390.555756,365.416870 390.786133,364.897522 
	C390.786133,364.897522 390.779205,364.782013 391.192963,364.810120 
	C392.471771,363.405945 393.336853,361.973694 394.201904,360.541443 
	C394.201874,360.541412 394.227844,360.276031 394.701782,360.342224 
	C397.563507,357.459869 399.951294,354.511261 402.339050,351.562683 
	C402.339081,351.562683 402.371887,351.328247 402.852478,351.519958 
	C406.158356,352.868134 408.729218,353.626587 410.206970,349.667633 
	C410.549438,348.750244 412.220245,348.158356 413.395844,347.754486 
	C416.801514,346.584534 420.568848,346.122711 423.635529,344.392670 
	C428.031647,341.912659 431.987701,338.627411 436.023468,335.544342 
	C438.087372,333.967682 439.876526,332.036591 441.860779,330.349091 
	C444.540344,328.070221 447.030121,325.383606 450.077423,323.772217 
	C453.298981,322.068695 457.009491,321.016296 460.629303,320.392395 
	C470.270996,318.730560 479.954926,316.448517 489.664795,316.218750 
	C513.785156,315.648010 537.929321,316.082977 562.063904,316.114014 
z"/>
<path fill="#2576D8" opacity="1.000000" stroke="none" 
	d="
M620.998047,459.009216 
	C627.220337,462.467957 633.442627,465.926666 639.498413,469.638733 
	C636.222168,468.589905 633.112366,467.287811 629.755859,465.750946 
	C625.320801,463.504059 621.264526,461.088470 616.886536,459.655823 
	C614.805115,458.974731 611.909851,459.688904 609.733154,460.603638 
	C604.098145,462.971680 598.773071,466.086975 593.112854,468.382874 
	C584.054626,472.057068 574.841858,475.354767 565.664062,478.728851 
	C556.350464,482.152893 547.112183,485.839172 537.642517,488.769592 
	C517.112854,495.122650 495.980499,498.390594 474.586761,500.065582 
	C469.954926,500.428223 465.254822,500.409607 460.703613,501.223450 
	C443.372467,504.322540 426.086823,507.676788 408.794647,510.990540 
	C407.696228,511.201019 406.687012,511.876984 405.636292,512.336426 
	C405.665985,512.867798 405.695709,513.399231 405.725433,513.930603 
	C412.483826,515.265686 419.242249,516.600708 426.453278,517.951355 
	C434.918579,518.331482 442.931274,518.696045 450.942505,519.332886 
	C450.923401,519.968628 450.905701,520.332031 450.888000,520.695374 
	C430.304810,520.792480 409.977966,519.366699 391.174927,509.828247 
	C387.045135,507.733276 383.215820,505.045929 379.434814,502.366882 
	C382.750183,501.491638 385.913452,501.019104 389.001709,500.246735 
	C403.764099,496.554688 418.470673,492.633118 433.267609,489.087494 
	C443.587341,486.614716 454.012115,484.574402 464.408020,482.428345 
	C468.800781,481.521545 473.210144,480.505829 477.662720,480.108673 
	C508.061890,477.396820 536.898254,468.850861 564.864197,457.013611 
	C567.526611,455.886719 570.014404,454.347198 572.583252,452.999237 
	C572.493896,452.577057 572.404541,452.154846 572.315186,451.732635 
	C571.138428,451.463226 569.961731,451.193817 568.842651,450.632324 
	C568.924683,449.943176 568.948975,449.546143 569.398560,449.072571 
	C578.214111,449.633575 586.604431,450.271118 594.994690,450.908630 
	C595.409607,451.030670 595.824463,451.152679 596.890503,451.436096 
	C600.691467,452.342682 603.841309,453.087860 606.991089,453.833069 
	C609.070312,454.561768 611.149597,455.290466 613.828613,456.315186 
	C616.618347,457.410522 618.808167,458.209869 620.998047,459.009216 
z"/>
<path fill="#1A80D5" opacity="1.000000" stroke="none" 
	d="
M568.784973,450.924438 
	C569.961731,451.193817 571.138428,451.463226 572.315186,451.732635 
	C572.404541,452.154846 572.493896,452.577057 572.583252,452.999237 
	C570.014404,454.347198 567.526611,455.886719 564.864197,457.013611 
	C536.898254,468.850861 508.061890,477.396820 477.662720,480.108673 
	C473.210144,480.505829 468.800781,481.521545 464.408020,482.428345 
	C454.012115,484.574402 443.587341,486.614716 433.267609,489.087494 
	C418.470673,492.633118 403.764099,496.554688 389.001709,500.246735 
	C385.913452,501.019104 382.750183,501.491638 379.237366,502.091797 
	C378.528900,502.046844 378.267487,501.900269 377.919647,501.086578 
	C376.751770,499.782928 375.733307,499.034149 374.714813,498.285370 
	C374.714813,498.285370 374.981964,497.998718 374.818604,497.831726 
	C374.087067,497.120972 373.518890,496.577240 372.950714,496.033539 
	C372.149963,495.057129 371.349243,494.080719 370.248779,492.591980 
	C370.596802,490.738251 370.994110,488.457794 371.932861,488.207428 
	C378.159058,486.546875 384.533325,485.453094 390.799133,483.927216 
	C404.001862,480.711975 417.258850,477.666046 430.324677,473.955841 
	C445.637207,469.607635 460.885468,464.957611 475.910217,459.717651 
	C480.371826,458.161713 485.615051,456.028992 487.491577,450.169800 
	C511.428436,450.093048 534.900208,450.018433 558.371765,450.060211 
	C561.843323,450.066376 565.313904,450.622681 568.784973,450.924438 
z"/>
<path fill="#6633E9" opacity="1.000000" stroke="none" 
	d="
M318.171387,649.999634 
	C318.651886,648.821228 319.132385,647.642883 320.174988,646.141113 
	C323.580811,643.871582 326.465790,641.951416 325.811584,637.793213 
	C325.811584,637.793213 325.936096,637.950562 326.228271,637.921509 
	C327.012268,637.926697 327.504089,637.960938 328.203339,638.283691 
	C332.470032,639.714478 336.560974,641.933289 340.583069,641.814819 
	C359.124084,641.268677 377.679565,640.485474 396.164795,638.985596 
	C413.189575,637.604187 430.203491,635.676758 447.090271,633.118713 
	C464.956757,630.412292 482.742157,627.028076 500.418549,623.262085 
	C511.257202,620.952881 521.893982,617.592834 532.491882,614.289368 
	C541.049927,611.621765 549.203552,607.184875 557.913452,605.585266 
	C571.337769,603.119812 583.819885,598.148376 596.000000,592.714294 
	C611.272217,585.900879 626.033142,577.809937 640.516968,569.411804 
	C648.620361,564.713257 656.628540,561.784790 665.894287,563.365845 
	C664.612793,567.574402 664.492188,571.614807 659.563049,573.653992 
	C649.771790,577.704468 640.332520,582.604065 630.735596,587.126892 
	C622.490845,591.012512 614.289551,594.998352 605.958923,598.691711 
	C596.310974,602.969177 586.728455,607.514099 576.773560,610.945190 
	C567.131775,614.268250 556.689331,615.399719 547.238831,619.120117 
	C523.988464,628.273315 499.636871,632.587463 475.273315,636.876221 
	C459.281067,639.691345 443.118378,641.530151 427.047058,643.907898 
	C421.142609,644.781494 415.318848,646.416931 409.393250,646.889587 
	C393.348969,648.169495 377.265564,648.950439 361.206451,650.056458 
	C354.094879,650.546204 347.003723,651.864685 339.904633,651.854797 
	C332.659363,651.844666 325.415710,650.666504 318.171387,649.999634 
z"/>
<path fill="#6A2FE9" opacity="1.000000" stroke="none" 
	d="
M318.040680,650.299805 
	C325.415710,650.666504 332.659363,651.844666 339.904633,651.854797 
	C347.003723,651.864685 354.094879,650.546204 361.206451,650.056458 
	C377.265564,648.950439 393.348969,648.169495 409.393250,646.889587 
	C415.318848,646.416931 421.142609,644.781494 427.047058,643.907898 
	C443.118378,641.530151 459.281067,639.691345 475.273315,636.876221 
	C499.636871,632.587463 523.988464,628.273315 547.238831,619.120117 
	C556.689331,615.399719 567.131775,614.268250 576.773560,610.945190 
	C586.728455,607.514099 596.310974,602.969177 605.958923,598.691711 
	C614.289551,594.998352 622.490845,591.012512 630.735596,587.126892 
	C640.332520,582.604065 649.771790,577.704468 659.563049,573.653992 
	C664.492188,571.614807 664.612793,567.574402 665.983154,562.986145 
	C666.428833,560.159180 666.717224,558.084839 667.212891,555.684753 
	C667.954285,551.582520 668.488464,547.806091 669.302124,544.026367 
	C669.954102,544.021790 670.326599,544.020508 670.699158,544.019165 
	C669.321350,561.248962 664.658630,577.556946 656.613281,593.149902 
	C656.275146,593.289124 655.960205,592.980347 655.868530,592.627197 
	C654.099365,591.561951 652.225769,589.973267 650.779724,590.296631 
	C645.770935,591.416565 640.718445,592.764160 636.034607,594.825317 
	C626.511230,599.016113 617.520020,604.579163 607.766174,608.049316 
	C587.621094,615.216431 567.128784,621.410156 546.760620,627.946167 
	C539.325562,630.332031 531.962158,633.164124 524.346802,634.717163 
	C509.911194,637.661133 495.332092,639.919250 480.784973,642.293213 
	C466.199341,644.673218 451.533661,646.595154 437.005035,649.271362 
	C432.870575,650.032898 427.185242,649.621643 425.505310,655.888306 
	C407.866241,655.321533 390.862000,656.826843 373.748749,659.764282 
	C369.962860,654.820984 364.986694,657.775696 361.027863,657.888794 
	C350.709076,658.183472 340.452820,660.294983 330.126709,660.857178 
	C324.828552,661.145691 319.434265,659.669861 314.213623,658.679565 
	C314.876068,656.884705 315.408264,655.401611 315.940491,653.918518 
	C316.597015,652.812317 317.253479,651.706055 318.040680,650.299805 
z"/>
<path fill="#3465DD" opacity="1.000000" stroke="none" 
	d="
M630.002563,465.985718 
	C633.112366,467.287811 636.222168,468.589905 639.704224,469.903778 
	C640.076477,469.915527 640.039551,469.942871 640.107910,470.226349 
	C641.115662,470.990875 642.054932,471.471924 642.994263,471.952972 
	C645.713196,474.285797 648.432068,476.618652 650.970642,479.258148 
	C647.052917,477.772675 643.482117,476.489258 640.805542,481.322784 
	C640.328125,482.184845 638.900513,482.629150 637.824097,483.033173 
	C631.490417,485.410736 625.204041,487.948395 618.765930,490.007477 
	C600.587708,495.821350 582.392212,501.592224 564.103271,507.043762 
	C556.003235,509.458252 547.563171,510.728027 539.453308,513.114807 
	C527.952637,516.499512 516.349365,518.933655 504.333405,518.983826 
	C486.537109,519.058105 468.740448,519.039612 450.943939,519.060547 
	C442.931274,518.696045 434.918579,518.331482 426.581299,517.627563 
	C428.237823,516.221985 430.166687,514.374146 432.209961,514.237488 
	C438.091156,513.844177 443.849884,513.292114 449.728119,512.341797 
	C467.495697,509.469482 485.525055,508.262421 503.360413,505.752808 
	C533.411621,501.524261 562.466431,493.213593 590.808472,482.534698 
	C604.069031,477.538269 616.949707,471.533478 630.002563,465.985718 
z"/>
<path fill="#7F25EB" opacity="1.000000" stroke="none" 
	d="
M373.993256,660.015503 
	C390.862000,656.826843 407.866241,655.321533 425.976074,655.919922 
	C448.177917,655.621826 469.442444,655.305176 490.707123,655.003052 
	C493.700531,654.960510 496.704681,655.129028 499.684540,654.921997 
	C501.066956,654.825928 502.418671,654.103699 503.756592,653.592712 
	C505.935333,652.760559 508.031250,651.623474 510.274536,651.074341 
	C512.337280,650.569397 514.657410,651.040771 516.676880,650.446167 
	C534.339355,645.246094 552.019043,640.090820 569.575317,634.547546 
	C585.719299,629.450073 601.761963,624.019348 617.759460,618.476135 
	C625.282043,615.869507 632.570129,612.592346 640.019897,609.764954 
	C641.563782,609.178955 643.352783,609.238770 645.041992,609.393677 
	C645.104919,610.569397 645.154602,611.352295 645.204285,612.135193 
	C645.204285,612.135193 645.201843,612.186096 644.866211,612.267883 
	C643.970947,613.361877 643.411316,614.374023 642.851685,615.386169 
	C642.851685,615.386169 642.761047,615.706787 642.289673,615.768188 
	C640.560242,617.479675 639.302124,619.129700 638.044006,620.779785 
	C635.106323,623.618469 632.168640,626.457092 628.797729,629.724792 
	C627.829163,631.044861 627.293823,631.935913 626.758423,632.826904 
	C626.758423,632.826904 626.834106,632.833069 626.551636,632.909668 
	C625.529663,633.659851 624.790039,634.333496 624.050476,635.007080 
	C623.429993,635.411438 622.809570,635.815796 621.741455,636.592346 
	C620.449707,637.664551 619.605469,638.364563 618.761230,639.064575 
	C617.937256,639.513184 617.113281,639.961731 615.798157,640.710388 
	C613.370667,642.298950 611.434265,643.587402 609.497925,644.875916 
	C609.059998,644.982544 608.622131,645.089172 607.750488,645.468384 
	C606.822632,646.046570 606.328491,646.352295 605.834351,646.658020 
	C605.049133,646.980042 604.263855,647.302063 602.862854,647.833313 
	C591.801331,650.960815 581.355469,653.878967 570.909668,656.797180 
	C570.474670,656.803040 570.039612,656.808960 568.832642,656.910278 
	C518.322144,657.023193 468.583618,657.027588 418.845184,657.091309 
	C415.882416,657.095093 412.920258,657.573669 409.957794,657.831299 
	C409.515320,657.801086 409.072815,657.770874 407.857880,657.803955 
	C398.684570,658.822449 390.283722,659.777527 381.882874,660.732544 
	C381.454437,660.779785 381.026001,660.827087 379.965118,660.949097 
	C378.490997,661.214050 377.649323,661.404358 376.807617,661.594604 
	C376.395660,661.673645 375.983734,661.752625 374.884583,661.929260 
	C365.966888,664.600098 357.736420,667.173279 349.569214,669.386841 
	C351.092834,668.071899 352.433411,666.756470 354.034424,666.223938 
	C360.644409,664.025330 367.333344,662.064026 373.993256,660.015503 
z"/>
<path fill="#2576D8" opacity="1.000000" stroke="none" 
	d="
M726.883423,329.013580 
	C726.533752,329.759674 726.184021,330.505737 725.557373,331.800720 
	C724.857239,333.565765 724.433960,334.781921 724.010681,335.998077 
	C722.371521,339.070526 720.732300,342.142944 718.835327,345.676422 
	C718.309082,346.341583 718.193054,346.611298 718.229553,346.946594 
	C717.805969,347.552948 717.382385,348.159271 716.628906,349.186401 
	C715.930603,349.774872 715.562073,349.942535 715.218689,349.757141 
	C715.307373,348.163483 715.370911,346.922913 715.500854,344.387543 
	C703.809875,350.773804 690.928101,347.954254 679.690063,354.412689 
	C670.637756,359.615021 659.820007,361.666168 649.975525,365.591797 
	C640.268433,369.462677 630.900208,374.182953 621.195129,378.059265 
	C613.528870,381.121216 606.931763,385.599060 600.431885,391.085907 
	C589.305786,391.055878 578.637573,391.008179 568.103516,390.655457 
	C572.848755,387.002930 577.328308,383.448975 582.125427,380.393463 
	C584.592468,378.822052 587.742188,378.367035 590.382202,377.014771 
	C601.164246,371.491913 611.832092,365.745789 622.621887,360.238495 
	C626.311890,358.355072 630.235107,356.928284 634.053772,355.297455 
	C645.955750,350.214447 657.614563,344.422150 669.823425,340.233215 
	C684.877808,335.067932 700.547424,331.698822 715.614258,326.564789 
	C720.470337,324.910065 727.357178,323.690460 728.191650,315.977783 
	C728.567139,315.505920 728.743469,315.205322 728.919800,314.904694 
	C729.096497,314.899902 729.273254,314.895081 729.751953,315.325195 
	C730.070129,316.504639 730.086243,317.249146 730.102417,317.993713 
	C729.970154,318.397430 729.837891,318.801147 729.486816,319.829956 
	C728.473206,323.307861 727.678345,326.160706 726.883423,329.013580 
z"/>
<path fill="#583EE8" opacity="1.000000" stroke="none" 
	d="
M340.978912,621.080872 
	C344.096527,618.448181 347.214142,615.815491 350.933472,613.280212 
	C353.600586,613.773804 355.684631,614.583740 357.728210,614.492126 
	C365.184540,614.157776 372.621216,613.401123 380.076508,613.025818 
	C395.650085,612.242004 411.264282,611.954529 426.354736,607.214600 
	C428.661591,606.489990 431.263428,606.766052 433.686798,606.340210 
	C443.935455,604.539124 454.184082,602.729980 464.402039,600.764404 
	C473.377014,599.037964 481.433624,594.121521 490.739838,593.252625 
	C492.932373,593.047913 494.906372,590.502991 497.451324,589.018066 
	C512.932739,589.001892 527.943726,589.002380 542.850098,589.321167 
	C538.282043,592.440369 534.157715,596.325928 529.293945,597.846924 
	C512.058655,603.236816 494.679535,608.263916 477.140717,612.552490 
	C465.232513,615.464294 453.019836,617.323608 440.846558,618.911804 
	C424.218994,621.081177 407.519012,622.766968 390.813232,624.242920 
	C376.919495,625.470520 362.981110,626.359680 349.043457,626.811218 
	C345.369141,626.930176 341.624420,624.873596 337.912048,623.815979 
	C338.371735,623.253357 338.831451,622.690735 339.759155,621.908081 
	C340.504089,621.518188 340.754669,621.315857 340.978912,621.080872 
z"/>
<path fill="#5F3AE9" opacity="1.000000" stroke="none" 
	d="
M337.612122,623.970459 
	C341.624420,624.873596 345.369141,626.930176 349.043457,626.811218 
	C362.981110,626.359680 376.919495,625.470520 390.813232,624.242920 
	C407.519012,622.766968 424.218994,621.081177 440.846558,618.911804 
	C453.019836,617.323608 465.232513,615.464294 477.140717,612.552490 
	C494.679535,608.263916 512.058655,603.236816 529.293945,597.846924 
	C534.157715,596.325928 538.282043,592.440369 543.228394,589.328369 
	C546.794922,588.403381 549.878601,587.789490 553.421631,587.095032 
	C561.066162,586.279785 568.306091,585.884216 575.424072,584.734192 
	C587.424500,582.795410 599.260254,580.097290 610.030884,574.065918 
	C613.735474,572.667847 617.440125,571.269836 621.472168,570.140564 
	C619.438843,575.343445 614.233704,576.228271 610.243713,578.932861 
	C598.613159,586.816711 584.957886,588.413940 572.176758,592.687073 
	C564.669312,595.196960 556.695984,596.713196 549.664185,600.166870 
	C532.228271,608.730591 513.883057,614.381226 495.039520,618.367554 
	C477.505768,622.076843 459.871857,626.126160 442.081787,627.586121 
	C423.606445,629.102417 405.562103,634.187256 386.795074,633.325623 
	C377.244781,632.887085 367.602448,634.909241 358.007782,634.849609 
	C348.617767,634.791321 339.235382,633.501221 329.849670,632.751892 
	C332.337189,629.876221 334.824677,627.000549 337.612122,623.970459 
z"/>
<path fill="#3F5ADF" opacity="1.000000" stroke="none" 
	d="
M450.942505,519.332947 
	C468.740448,519.039612 486.537109,519.058105 504.333405,518.983826 
	C516.349365,518.933655 527.952637,516.499512 539.453308,513.114807 
	C547.563171,510.728027 556.003235,509.458252 564.103271,507.043762 
	C582.392212,501.592224 600.587708,495.821350 618.765930,490.007477 
	C625.204041,487.948395 631.490417,485.410736 637.824097,483.033173 
	C638.900513,482.629150 640.328125,482.184845 640.805542,481.322784 
	C643.482117,476.489258 647.052917,477.772675 651.160339,479.530121 
	C651.530334,479.495453 651.531250,479.515198 651.508057,479.853577 
	C652.038879,480.760345 652.592957,481.328735 653.147034,481.897095 
	C653.147034,481.897095 653.233154,481.889801 653.306885,482.210693 
	C653.979492,482.946350 654.578491,483.361145 655.177429,483.775879 
	C655.446533,484.004486 655.715637,484.233093 656.068604,485.062744 
	C656.961792,486.528046 657.770996,487.392212 658.580200,488.256409 
	C658.580200,488.256409 658.793945,488.380280 658.693726,488.856628 
	C659.726929,491.897858 660.860413,494.462799 661.584290,497.021820 
	C659.859192,497.180511 658.480713,497.146271 657.237671,497.539764 
	C640.729553,502.765686 624.207214,507.951477 607.772400,513.400513 
	C604.144409,514.603333 600.843018,516.791077 597.391174,518.525269 
	C597.482361,519.076538 597.573547,519.627808 597.664734,520.179077 
	C600.299561,520.591858 602.953186,520.911072 605.565857,521.434204 
	C614.693359,523.261841 623.806763,525.159851 633.175415,527.264832 
	C635.178711,528.897522 636.932129,530.296509 638.685547,531.695435 
	C617.302429,523.134399 594.819763,521.195007 572.127930,521.060303 
	C532.032959,520.822144 491.936127,520.901367 451.364014,520.771545 
	C450.905701,520.332031 450.923401,519.968628 450.942505,519.332947 
z"/>
<path fill="#6235E8" opacity="1.000000" stroke="none" 
	d="
M329.863861,632.783936 
	C339.235382,633.501221 348.617767,634.791321 358.007782,634.849609 
	C367.602448,634.909241 377.244781,632.887085 386.795074,633.325623 
	C405.562103,634.187256 423.606445,629.102417 442.081787,627.586121 
	C459.871857,626.126160 477.505768,622.076843 495.039520,618.367554 
	C513.883057,614.381226 532.228271,608.730591 549.664185,600.166870 
	C556.695984,596.713196 564.669312,595.196960 572.176758,592.687073 
	C584.957886,588.413940 598.613159,586.816711 610.243713,578.932861 
	C614.233704,576.228271 619.438843,575.343445 621.848022,570.051514 
	C622.384827,569.174805 622.873352,568.656006 623.827515,567.882629 
	C624.510864,567.350464 624.728577,567.072876 624.946289,566.795288 
	C624.946289,566.795288 624.916077,566.890442 625.289734,566.904480 
	C630.411682,565.034180 635.136230,563.087219 639.914062,561.281006 
	C646.169861,558.916138 652.365723,556.282288 658.799805,554.556213 
	C661.230164,553.904236 664.252930,555.460815 667.005676,556.010559 
	C666.717224,558.084839 666.428833,560.159180 666.051514,562.613159 
	C656.628540,561.784790 648.620361,564.713257 640.516968,569.411804 
	C626.033142,577.809937 611.272217,585.900879 596.000000,592.714294 
	C583.819885,598.148376 571.337769,603.119812 557.913452,605.585266 
	C549.203552,607.184875 541.049927,611.621765 532.491882,614.289368 
	C521.893982,617.592834 511.257202,620.952881 500.418549,623.262085 
	C482.742157,627.028076 464.956757,630.412292 447.090271,633.118713 
	C430.203491,635.676758 413.189575,637.604187 396.164795,638.985596 
	C377.679565,640.485474 359.124084,641.268677 340.583069,641.814819 
	C336.560974,641.933289 332.470032,639.714478 328.346313,637.956726 
	C328.484344,636.180542 328.686890,635.019775 328.889404,633.859070 
	C328.889404,633.859070 328.920746,633.945740 329.085388,633.783203 
	C329.477051,633.337158 329.704071,633.053711 329.931091,632.770264 
	C329.931122,632.770264 329.878052,632.816040 329.863861,632.783936 
z"/>
<path fill="#2C6CDA" opacity="1.000000" stroke="none" 
	d="
M600.889832,391.068268 
	C606.931763,385.599060 613.528870,381.121216 621.195129,378.059265 
	C630.900208,374.182953 640.268433,369.462677 649.975525,365.591797 
	C659.820007,361.666168 670.637756,359.615021 679.690063,354.412689 
	C690.928101,347.954254 703.809875,350.773804 715.500854,344.387543 
	C715.370911,346.922913 715.307373,348.163483 715.194946,349.731140 
	C715.146118,350.058228 715.207703,350.024200 714.993896,350.256165 
	C714.585632,351.072693 714.391235,351.657227 714.175232,352.184998 
	C714.153625,352.128296 714.268738,352.089966 714.039307,352.244690 
	C713.551086,352.661438 713.292419,352.923431 713.036621,353.103180 
	C713.039612,353.020935 713.204041,353.027924 712.986572,353.242035 
	C712.527405,354.003662 712.285767,354.551147 712.044067,355.098663 
	C712.014282,355.415985 711.881470,355.681793 711.084595,356.049988 
	C709.516907,357.605377 708.510193,359.006897 707.503479,360.408447 
	C707.503479,360.408447 707.401306,360.348969 707.202637,360.457977 
	C706.805237,360.876404 706.606567,361.185822 706.407837,361.495239 
	C706.407837,361.495239 706.474915,361.425232 706.180298,361.503296 
	C705.438049,362.235199 704.990479,362.889008 704.542908,363.542816 
	C704.542908,363.542816 704.438599,363.461884 704.240845,363.548645 
	C703.841492,363.935547 703.639893,364.235687 703.438232,364.535828 
	C703.438232,364.535797 703.373291,364.406372 703.195923,364.517029 
	C702.799805,364.921906 702.580994,365.216156 702.362244,365.510376 
	C702.362244,365.510376 702.433472,365.497284 702.081665,365.481445 
	C700.874023,366.374390 700.018250,367.283173 699.162476,368.191956 
	C699.162476,368.191956 699.050293,368.038910 698.932922,368.103607 
	C698.592651,368.461273 698.369812,368.754242 698.146973,369.047241 
	C698.146973,369.047241 698.012634,369.430573 697.684570,369.745056 
	C696.556580,370.701660 695.756653,371.343750 694.956787,371.985840 
	C694.640686,371.981018 694.360413,372.078888 693.704834,372.597778 
	C692.446472,373.546539 691.599365,374.177002 690.752258,374.807434 
	C690.752258,374.807434 690.833313,374.804108 690.501221,374.871887 
	C688.622742,375.917175 687.076477,376.894684 685.530212,377.872192 
	C659.168396,392.053070 630.605957,393.513031 601.230103,391.997681 
	C600.872070,391.425323 600.880981,391.246796 600.889832,391.068268 
z"/>
<path fill="#108CD2" opacity="1.000000" stroke="none" 
	d="
M487.026459,450.209595 
	C485.615051,456.028992 480.371826,458.161713 475.910217,459.717651 
	C460.885468,464.957611 445.637207,469.607635 430.324677,473.955841 
	C417.258850,477.666046 404.001862,480.711975 390.799133,483.927216 
	C384.533325,485.453094 378.159058,486.546875 371.932861,488.207428 
	C370.994110,488.457794 370.596802,490.738251 369.975403,492.430054 
	C369.055878,491.712494 368.109955,490.644470 367.267517,489.020416 
	C366.470093,487.007874 365.569214,485.551361 364.668365,484.094849 
	C364.668365,484.094849 364.798706,484.053375 364.829041,483.730957 
	C363.549255,478.924866 362.239136,474.441223 360.929016,469.957581 
	C366.619110,468.885559 372.337708,467.943878 377.992065,466.708252 
	C384.941528,465.189545 391.949493,463.787292 398.731262,461.686279 
	C410.080688,458.170074 421.270935,454.140289 433.238342,450.095886 
	C451.641144,449.979919 469.333801,450.094757 487.026459,450.209595 
z"/>
<path fill="#5345E6" opacity="1.000000" stroke="none" 
	d="
M496.980927,589.034668 
	C494.906372,590.502991 492.932373,593.047913 490.739838,593.252625 
	C481.433624,594.121521 473.377014,599.037964 464.402039,600.764404 
	C454.184082,602.729980 443.935455,604.539124 433.686798,606.340210 
	C431.263428,606.766052 428.661591,606.489990 426.354736,607.214600 
	C411.264282,611.954529 395.650085,612.242004 380.076508,613.025818 
	C372.621216,613.401123 365.184540,614.157776 357.728210,614.492126 
	C355.684631,614.583740 353.600586,613.773804 351.245789,613.146240 
	C356.846558,608.861267 362.736694,604.807617 369.210022,600.401855 
	C384.091644,593.175110 399.102631,588.999390 415.349792,588.309143 
	C417.857544,588.664246 419.998871,588.969238 422.140747,588.973267 
	C447.087433,589.019958 472.034180,589.021301 496.980927,589.034668 
z"/>
<path fill="#722AEA" opacity="1.000000" stroke="none" 
	d="
M373.748749,659.764282 
	C367.333344,662.064026 360.644409,664.025330 354.034424,666.223938 
	C352.433411,666.756470 351.092834,668.071899 349.528809,669.425293 
	C349.425110,669.823303 349.339325,669.752075 348.991455,669.611206 
	C347.448975,670.036438 346.254333,670.602600 345.060211,671.132385 
	C345.060730,671.096069 345.133301,671.100037 344.813416,671.138672 
	C343.722595,671.835999 342.951660,672.494690 342.166626,673.124756 
	C342.152527,673.096191 342.197205,673.138794 341.831970,673.131470 
	C340.380463,673.878235 339.294189,674.632385 338.212158,675.330872 
	C338.216461,675.275146 338.326843,675.292847 337.968506,675.260681 
	C336.779114,675.880432 335.948029,676.532288 335.116913,677.184143 
	C335.116913,677.184143 335.101746,677.108276 334.787964,677.123535 
	C333.681610,677.813232 332.888977,678.487671 332.096375,679.162109 
	C332.096344,679.162048 332.088715,679.089355 331.755615,679.098389 
	C330.309662,680.119202 329.196838,681.130920 328.083984,682.142639 
	C328.083984,682.142639 328.073547,682.072876 327.808533,682.156494 
	C327.133453,682.682373 326.723328,683.124695 326.313232,683.566956 
	C326.313232,683.566956 326.381561,683.483765 326.056549,683.458618 
	C324.439270,684.806274 323.147003,686.179138 321.854736,687.551941 
	C321.854736,687.551941 321.795044,687.763489 321.479065,687.806274 
	C320.889801,687.999146 320.766205,688.229614 320.792297,688.540405 
	C320.792297,688.540405 320.759155,688.694763 320.395660,688.736572 
	C319.699615,689.202026 319.367035,689.625732 319.034485,690.049438 
	C319.034485,690.049438 319.001221,690.001282 318.744293,690.109009 
	C318.149841,690.676941 317.812317,691.137146 317.474792,691.597412 
	C317.474792,691.597412 317.167206,691.509216 316.998169,691.499878 
	C316.549408,691.684814 316.269684,691.879089 315.989960,692.073364 
	C315.989960,692.073364 316.001251,691.993408 315.846375,692.162170 
	C315.462921,692.581055 315.234344,692.831177 315.005737,693.081299 
	C315.005768,693.081299 315.068451,693.031189 314.743530,693.109985 
	C312.977997,694.893311 311.537415,696.597839 310.096802,698.302429 
	C309.650604,698.831421 309.204407,699.360474 308.123474,699.984863 
	C304.348083,700.500427 301.939362,701.562012 302.771271,705.463501 
	C302.771271,705.463501 302.674072,705.726074 302.216431,705.493896 
	C301.441772,703.141296 300.353699,700.778931 300.930939,698.939026 
	C305.126801,685.564087 309.658173,672.294312 314.083435,658.991333 
	C319.434265,659.669861 324.828552,661.145691 330.126709,660.857178 
	C340.452820,660.294983 350.709076,658.183472 361.027863,657.888794 
	C364.986694,657.775696 369.962860,654.820984 373.748749,659.764282 
z"/>
<path fill="#11B5F4" opacity="1.000000" stroke="none" 
	d="
M600.431885,391.085907 
	C600.880981,391.246796 600.872070,391.425323 600.829590,391.870178 
	C558.549011,392.197479 516.296997,391.889709 474.057220,392.469116 
	C451.641052,392.776581 429.403931,395.383575 408.975647,405.956238 
	C407.207947,406.871094 405.492737,407.887390 403.402466,408.883850 
	C408.313995,405.688293 413.414795,402.148499 418.896790,399.357361 
	C422.384979,397.581390 426.386261,396.686432 430.250427,395.802795 
	C437.625580,394.116302 445.077301,392.767517 452.474152,391.171478 
	C454.390228,390.758057 456.386078,390.235168 458.061768,389.270172 
	C465.273315,385.117340 472.301147,380.643127 479.542175,376.544495 
	C490.212891,370.504517 501.073486,364.799469 511.731415,358.737610 
	C521.759399,353.033997 531.484741,346.784088 541.634644,341.315491 
	C546.215759,338.847260 551.551270,337.813599 556.462402,335.916656 
	C568.185364,331.388824 579.821045,326.632385 591.582397,322.208679 
	C594.285461,321.191986 597.352539,321.142975 600.417969,321.119720 
	C594.804077,324.042572 589.044312,326.543213 583.240051,328.935791 
	C571.546082,333.756104 559.442993,337.758972 548.200378,343.462555 
	C525.382751,355.038208 502.975006,367.428802 480.518372,379.703064 
	C475.758575,382.304718 471.512573,385.846344 467.029816,388.954834 
	C467.292175,389.595734 467.554535,390.236664 467.816895,390.877563 
	C479.882416,390.877563 491.947937,390.877563 504.479736,390.905762 
	C511.299805,390.919983 517.653564,390.906036 524.473572,390.918152 
	C530.296997,390.929413 535.654175,390.914581 541.478638,390.927307 
	C550.620422,390.956726 559.294861,390.958618 567.969360,390.960510 
	C578.637573,391.008179 589.305786,391.055878 600.431885,391.085907 
z"/>
<path fill="#11B5F4" opacity="1.000000" stroke="none" 
	d="
M728.523682,314.744202 
	C728.743469,315.205322 728.567139,315.505920 727.727905,315.909882 
	C721.039856,316.024780 715.014648,316.036285 708.522766,316.020874 
	C697.696960,316.018433 687.337891,316.042847 676.511963,316.044983 
	C669.025696,316.041656 662.006226,316.060669 654.519287,316.060120 
	C644.145447,316.036346 634.234192,315.858124 624.335632,316.134155 
	C621.378052,316.216614 618.466553,317.613708 615.514832,318.329834 
	C611.750000,319.243195 607.965698,320.076569 604.189819,320.944458 
	C606.525635,319.810883 608.861450,318.677307 611.197266,317.543762 
	C611.147705,317.050110 611.098083,316.556458 611.048523,316.062805 
	C595.027832,316.062805 579.007202,316.062805 562.525208,316.088440 
	C537.929321,316.082977 513.785156,315.648010 489.664795,316.218750 
	C479.954926,316.448517 470.270996,318.730560 460.629303,320.392395 
	C457.009491,321.016296 453.298981,322.068695 450.077423,323.772217 
	C447.030121,325.383606 444.540344,328.070221 441.860779,330.349091 
	C439.876526,332.036591 438.087372,333.967682 436.023468,335.544342 
	C431.987701,338.627411 428.031647,341.912659 423.635529,344.392670 
	C420.568848,346.122711 416.801514,346.584534 413.395844,347.754486 
	C412.220245,348.158356 410.549438,348.750244 410.206970,349.667633 
	C408.729218,353.626587 406.158356,352.868134 402.970276,351.508301 
	C415.465698,340.431732 428.037170,329.124725 445.092682,323.356720 
	C449.232086,321.926727 452.735718,320.778961 456.239380,319.631195 
	C457.950928,319.261414 459.662445,318.891602 462.065002,318.297607 
	C465.250031,317.548279 467.744019,317.023132 470.238037,316.498047 
	C470.643799,316.416840 471.049530,316.335632 472.105469,316.134033 
	C474.221954,315.771362 475.688293,315.529144 477.154602,315.286926 
	C477.572968,315.261383 477.991364,315.235840 479.168060,315.118591 
	C506.681122,314.868256 533.435791,314.702759 560.190552,314.553284 
	C580.124451,314.441925 600.058472,314.351318 619.992432,314.251465 
	C620.444702,314.332489 620.896912,314.413483 622.002563,314.483643 
	C623.101257,314.397827 623.546631,314.322876 623.992004,314.247925 
	C631.030090,314.338440 638.068115,314.428986 645.921143,314.506409 
	C647.486572,314.417816 648.237122,314.342346 648.987610,314.266907 
	C657.606384,314.378967 666.224976,314.565582 674.843994,314.587555 
	C692.604980,314.632812 710.366333,314.590149 728.523682,314.744202 
z"/>
<path fill="#5345E6" opacity="1.000000" stroke="none" 
	d="
M638.688110,531.689331 
	C636.932129,530.296509 635.178711,528.897522 633.428223,527.024841 
	C637.787842,524.330872 641.953857,521.525696 646.546387,520.029297 
	C653.228210,517.852112 660.217163,516.617798 668.042480,514.750732 
	C666.015137,508.810364 664.004517,502.919037 661.993896,497.027710 
	C660.860413,494.462799 659.726929,491.897858 658.699341,488.979980 
	C668.608887,503.016754 671.324524,519.255310 671.190918,536.227234 
	C671.172729,538.538574 670.991333,540.848633 670.792358,543.589233 
	C670.326599,544.020508 669.954102,544.021790 669.296631,543.601196 
	C669.434021,539.408325 667.848389,537.624756 663.969604,537.953003 
	C659.310486,538.347107 654.644287,538.658691 649.981201,539.006042 
	C649.981201,539.006042 650.009033,539.006104 649.898560,538.729431 
	C649.175049,537.982300 648.562012,537.511841 647.948975,537.041382 
	C646.050903,535.910828 644.152771,534.780334 641.873535,533.231079 
	C641.221069,532.636719 640.930298,532.503296 640.620056,532.412109 
	C640.620056,532.412109 640.672485,532.524109 640.479553,532.294434 
	C639.759888,531.940308 639.233154,531.815918 638.706421,531.691528 
	C638.706421,531.691528 638.690674,531.683167 638.688110,531.689331 
z"/>
<path fill="#5F3AE9" opacity="1.000000" stroke="none" 
	d="
M649.927734,539.345764 
	C654.644287,538.658691 659.310486,538.347107 663.969604,537.953003 
	C667.848389,537.624756 669.434021,539.408325 669.017212,543.604492 
	C668.488464,547.806091 667.954285,551.582520 667.212891,555.684753 
	C664.252930,555.460815 661.230164,553.904236 658.799805,554.556213 
	C652.365723,556.282288 646.169861,558.916138 639.914062,561.281006 
	C635.136230,563.087219 630.411682,565.034180 625.242676,566.887695 
	C634.896484,559.389038 642.894958,550.007080 649.927734,539.345764 
z"/>
<path fill="#07050B" opacity="1.000000" stroke="none" 
	d="
M410.252350,658.084961 
	C412.920258,657.573669 415.882416,657.095093 418.845184,657.091309 
	C468.583618,657.027588 518.322144,657.023193 568.528076,657.036926 
	C566.326172,658.037476 563.659729,659.842285 560.986877,659.851807 
	C513.068176,660.023132 465.148621,659.999207 417.229431,659.908264 
	C415.000946,659.904053 412.774384,658.885010 410.252350,658.084961 
z"/>
<path fill="#07050B" opacity="1.000000" stroke="none" 
	d="
M594.833191,450.588348 
	C586.604431,450.271118 578.214111,449.633575 568.933472,449.021851 
	C529.751404,449.016327 491.459625,449.014404 453.168091,448.914368 
	C448.693298,448.902679 444.219879,448.349762 439.745819,448.047791 
	C450.962555,447.369720 462.174866,446.209625 473.396881,446.106781 
	C503.299591,445.832733 533.209717,445.766144 563.109863,446.154388 
	C572.946655,446.282074 582.764282,448.034912 592.582642,449.117767 
	C593.312378,449.198273 593.976868,449.870789 594.833191,450.588348 
z"/>
<path fill="#07050B" opacity="1.000000" stroke="none" 
	d="
M619.735596,314.000641 
	C600.058472,314.351318 580.124451,314.441925 560.190552,314.553284 
	C533.435791,314.702759 506.681122,314.868256 479.457672,314.987518 
	C480.556915,314.299530 482.123566,313.087860 483.693024,313.084229 
	C527.841492,312.981873 571.990234,312.996155 616.138916,313.032623 
	C617.252380,313.033539 618.365479,313.500305 619.735596,314.000641 
z"/>
<path fill="#4A4EE2" opacity="1.000000" stroke="none" 
	d="
M497.451324,589.018066 
	C472.034180,589.021301 447.087433,589.019958 422.140747,588.973267 
	C419.998871,588.969238 417.857544,588.664246 415.770142,588.227539 
	C432.625214,587.779297 449.425751,587.535156 466.227081,587.441772 
	C490.513824,587.306763 514.801147,587.280884 539.088257,587.208496 
	C539.807068,587.277954 540.525940,587.347473 541.975769,587.374023 
	C543.483032,587.258911 544.259338,587.186829 545.035583,587.114685 
	C546.099182,587.124023 547.162720,587.133301 549.010376,587.101440 
	C550.850342,587.098694 551.906311,587.137085 552.962219,587.175537 
	C549.878601,587.789490 546.794922,588.403381 543.333008,589.010071 
	C527.943726,589.002380 512.932739,589.001892 497.451324,589.018066 
z"/>
<path fill="#11B5F4" opacity="1.000000" stroke="none" 
	d="
M360.911133,469.527435 
	C362.239136,474.441223 363.549255,478.924866 364.847961,483.796692 
	C359.310242,476.104462 357.887604,466.816010 357.233032,457.391876 
	C356.040253,440.219788 359.847931,423.867889 366.492065,408.204865 
	C370.549103,398.640747 375.473541,389.444580 380.245422,379.844849 
	C380.090759,381.166107 379.894806,382.808350 379.276276,384.272034 
	C374.614471,395.303558 369.869507,406.299957 365.023193,417.654663 
	C361.294037,427.697784 358.829926,437.551208 359.755737,448.061462 
	C360.371552,455.052582 360.530029,462.083954 360.911133,469.527435 
z"/>
<path fill="#11B5F4" opacity="1.000000" stroke="none" 
	d="
M439.688568,448.142090 
	C444.219879,448.349762 448.693298,448.902679 453.168091,448.914368 
	C491.459625,449.014404 529.751404,449.016327 568.508179,449.098358 
	C568.948975,449.546143 568.924683,449.943176 568.842651,450.632324 
	C565.313904,450.622681 561.843323,450.066376 558.371765,450.060211 
	C534.900208,450.018433 511.428436,450.093048 487.491577,450.169800 
	C469.333801,450.094757 451.641144,449.979919 433.480835,449.830048 
	C422.027863,447.240662 410.974609,444.936768 400.096405,441.987213 
	C396.597382,441.038544 393.559845,438.387756 390.548828,436.233521 
	C391.134979,436.050903 391.483490,436.150391 391.832001,436.249908 
	C391.832001,436.249908 391.847046,436.116791 391.911194,436.356750 
	C392.315033,436.699402 392.654755,436.802063 392.994446,436.904724 
	C393.738281,437.328339 394.482117,437.751953 395.724548,438.466431 
	C396.775330,438.903473 397.327454,439.049652 397.879578,439.195801 
	C397.879578,439.195831 397.888428,439.072449 397.953064,439.299500 
	C398.338776,439.620422 398.659882,439.714325 398.980957,439.808228 
	C399.365295,440.009003 399.749603,440.209778 400.755554,440.665344 
	C404.920471,441.935486 408.463715,442.950867 412.006958,443.966248 
	C412.386963,444.142761 412.766937,444.319244 413.806213,444.667908 
	C419.312073,445.569946 424.158691,446.299896 429.005280,447.029846 
	C429.422485,447.150726 429.839691,447.271637 430.918243,447.499756 
	C434.079987,447.746246 436.580414,447.885468 439.080811,448.024719 
	C439.191345,448.238953 439.374847,448.309509 439.688568,448.142090 
z"/>
<path fill="#07050B" opacity="1.000000" stroke="none" 
	d="
M538.744141,586.959717 
	C514.801147,587.280884 490.513824,587.306763 466.227081,587.441772 
	C449.425751,587.535156 432.625214,587.779297 415.403992,588.037598 
	C399.102631,588.999390 384.091644,593.175110 369.438812,600.148987 
	C369.904114,599.288452 370.531403,597.912903 371.572327,597.431213 
	C386.209656,590.657593 401.565369,586.221252 417.719757,586.092834 
	C455.987854,585.788757 494.260010,585.984009 532.530457,586.024780 
	C534.487244,586.026855 536.443481,586.471985 538.744141,586.959717 
z"/>
<path fill="#7F25EB" opacity="1.000000" stroke="none" 
	d="
M314.213623,658.679565 
	C309.658173,672.294312 305.126801,685.564087 300.930939,698.939026 
	C300.353699,700.778931 301.441772,703.141296 302.081055,705.529541 
	C300.974335,707.732544 299.545410,709.667786 298.116486,711.603088 
	C297.499146,711.135742 296.881805,710.668396 296.264465,710.201050 
	C296.479614,709.051819 296.575378,707.864563 296.927979,706.759155 
	C301.888306,691.208313 306.831024,675.651367 311.931366,660.146301 
	C312.633820,658.010742 314.159668,656.146057 315.622406,654.037231 
	C315.408264,655.401611 314.876068,656.884705 314.213623,658.679565 
z"/>
<path fill="#07050B" opacity="1.000000" stroke="none" 
	d="
M553.421631,587.094971 
	C551.906311,587.137085 550.850342,587.098694 549.399963,587.006165 
	C550.395203,586.304199 551.732300,585.266418 553.183044,585.070496 
	C564.143372,583.590332 575.218018,582.766785 586.068726,580.733521 
	C593.110596,579.414001 599.830505,576.388611 606.709412,574.173157 
	C607.604858,573.884766 608.588379,573.869690 609.781006,573.896973 
	C599.260254,580.097290 587.424500,582.795410 575.424072,584.734192 
	C568.306091,585.884216 561.066162,586.279785 553.421631,587.094971 
z"/>
<path fill="#07050B" opacity="1.000000" stroke="none" 
	d="
M571.226440,657.036804 
	C581.355469,653.878967 591.801331,650.960815 602.622131,648.045288 
	C602.397827,648.794067 601.933289,649.992371 601.178650,650.217224 
	C592.270752,652.871399 583.329163,655.415405 574.363525,657.868164 
	C573.539062,658.093750 572.488708,657.493347 571.226440,657.036804 
z"/>
<path fill="#07050B" opacity="1.000000" stroke="none" 
	d="
M349.465515,669.784912 
	C357.736420,667.173279 365.966888,664.600098 374.593506,662.052734 
	C371.776855,663.559937 368.640625,665.247253 365.334137,666.476868 
	C359.626007,668.599731 353.821411,670.466431 348.034393,672.370972 
	C346.953491,672.726685 345.765381,672.756653 344.392609,672.696594 
	C344.483429,672.004150 344.808380,671.552124 345.133301,671.100037 
	C345.133301,671.100037 345.060730,671.096069 345.390625,671.089783 
	C346.926788,670.639709 348.133057,670.195923 349.339355,669.752075 
	C349.339325,669.752075 349.425110,669.823303 349.465515,669.784912 
z"/>
<path fill="#07050B" opacity="1.000000" stroke="none" 
	d="
M382.124817,660.999634 
	C390.283722,659.777527 398.684570,658.822449 407.541870,657.917847 
	C405.685883,658.893066 403.446289,660.233154 401.045502,660.654053 
	C396.382355,661.471619 391.636902,661.890442 386.907776,662.218933 
	C385.423309,662.322021 383.882019,661.607117 382.124817,660.999634 
z"/>
<path fill="#07050B" opacity="1.000000" stroke="none" 
	d="
M428.917603,446.691895 
	C424.158691,446.299896 419.312073,445.569946 414.121521,444.680481 
	C419.000610,443.443329 424.096832,443.407684 428.917603,446.691895 
z"/>
<path fill="#11B5F4" opacity="1.000000" stroke="none" 
	d="
M402.091278,351.755890 
	C399.951294,354.511261 397.563507,357.459869 394.829010,360.302368 
	C396.936035,357.447266 399.389771,354.698181 402.091278,351.755890 
z"/>
<path fill="#07050B" opacity="1.000000" stroke="none" 
	d="
M438.982391,447.615234 
	C436.580414,447.885468 434.079987,447.746246 431.240723,447.435364 
	C433.542603,444.496307 436.197144,443.632843 438.982391,447.615234 
z"/>
<path fill="#07050B" opacity="1.000000" stroke="none" 
	d="
M411.868866,443.646210 
	C408.463715,442.950867 404.920471,441.935486 401.070190,440.748749 
	C404.419037,441.493652 408.074890,442.409912 411.868866,443.646210 
z"/>
<path fill="#07050B" opacity="1.000000" stroke="none" 
	d="
M606.861389,453.537292 
	C603.841309,453.087860 600.691467,452.342682 597.215454,451.418945 
	C600.727844,449.164093 603.923950,450.247650 606.861389,453.537292 
z"/>
<path fill="#07050B" opacity="1.000000" stroke="none" 
	d="
M455.997162,319.382874 
	C452.735718,320.778961 449.232086,321.926727 445.348083,323.107361 
	C448.563446,321.804993 452.159210,320.469757 455.997162,319.382874 
z"/>
<path fill="#07050B" opacity="1.000000" stroke="none" 
	d="
M727.214233,328.889587 
	C727.678345,326.160706 728.473206,323.307861 729.463867,320.148499 
	C731.648560,323.454834 729.670715,326.127747 727.214233,328.889587 
z"/>
<path fill="#5F3AE9" opacity="1.000000" stroke="none" 
	d="
M325.530548,637.977661 
	C326.465790,641.951416 323.580811,643.871582 320.411499,645.908691 
	C321.807159,643.387085 323.528351,640.774597 325.530548,637.977661 
z"/>
<path fill="#07050B" opacity="1.000000" stroke="none" 
	d="
M469.960419,316.236023 
	C467.744019,317.023132 465.250031,317.548279 462.363708,318.069550 
	C464.541870,317.368439 467.112335,316.671204 469.960419,316.236023 
z"/>
<path fill="#7F25EB" opacity="1.000000" stroke="none" 
	d="
M303.016113,705.273804 
	C301.939362,701.562012 304.348083,700.500427 307.878784,700.081543 
	C306.599487,701.749939 304.930206,703.416992 303.016113,705.273804 
z"/>
<path fill="#7F25EB" opacity="1.000000" stroke="none" 
	d="
M310.397034,698.148193 
	C311.537415,696.597839 312.977997,694.893311 314.768341,693.141479 
	C313.644501,694.727539 312.170868,696.360779 310.397034,698.148193 
z"/>
<path fill="#07050B" opacity="1.000000" stroke="none" 
	d="
M384.068298,431.810028 
	C382.460754,430.064819 381.123047,428.319214 384.326782,426.353638 
	C385.005890,427.817200 385.418671,429.494354 385.881317,431.621582 
	C385.931183,432.071625 385.857849,432.144470 385.555298,432.109497 
	C384.857910,431.986389 384.463104,431.898193 384.068298,431.810028 
z"/>
<path fill="#07050B" opacity="1.000000" stroke="none" 
	d="
M620.887085,458.689453 
	C618.808167,458.209869 616.618347,457.410522 614.194885,456.354797 
	C616.232910,456.855469 618.504578,457.612579 620.887085,458.689453 
z"/>
<path fill="#07050B" opacity="1.000000" stroke="none" 
	d="
M609.908203,644.891907 
	C611.434265,643.587402 613.370667,642.298950 615.657776,640.960083 
	C614.111877,642.242493 612.215210,643.575195 609.908203,644.891907 
z"/>
<path fill="#07050B" opacity="1.000000" stroke="none" 
	d="
M391.768097,435.908020 
	C391.483490,436.150391 391.134979,436.050903 390.520447,435.893555 
	C390.254395,435.835754 390.187408,435.849762 390.014374,435.609314 
	C389.213104,435.212616 388.584869,435.056396 387.956635,434.900146 
	C387.956635,434.900146 387.946899,435.022919 387.949341,434.745056 
	C387.665527,434.221832 387.379333,433.976410 387.093109,433.731018 
	C387.064911,433.388947 386.892578,433.151520 386.266174,432.785339 
	C385.956238,432.552002 385.857849,432.144470 385.857849,432.144470 
	C385.857849,432.144470 385.931183,432.071625 385.968262,432.035828 
	C387.904938,433.188721 389.804565,434.377441 391.768097,435.908020 
z"/>
<path fill="#6A2FE9" opacity="1.000000" stroke="none" 
	d="
M638.351624,620.724731 
	C639.302124,619.129700 640.560242,617.479675 642.146362,615.853149 
	C641.202698,617.474304 639.930969,619.071960 638.351624,620.724731 
z"/>
<path fill="#11B5F4" opacity="1.000000" stroke="none" 
	d="
M393.992676,360.749878 
	C393.336853,361.973694 392.471771,363.405945 391.250305,364.802551 
	C391.857086,363.497314 392.820251,362.227814 393.992676,360.749878 
z"/>
<path fill="#7F25EB" opacity="1.000000" stroke="none" 
	d="
M322.098999,687.373779 
	C323.147003,686.179138 324.439270,684.806274 326.093658,683.497559 
	C325.084930,684.773010 323.714111,685.984253 322.098999,687.373779 
z"/>
<path fill="#2576D8" opacity="1.000000" stroke="none" 
	d="
M707.759827,360.225220 
	C708.510193,359.006897 709.516907,357.605377 710.880981,356.150330 
	C710.164185,357.411865 709.090149,358.726898 707.759827,360.225220 
z"/>
<path fill="#6A2FE9" opacity="1.000000" stroke="none" 
	d="
M645.472778,611.967407 
	C645.154602,611.352295 645.104919,610.569397 645.296448,609.241699 
	C646.346436,608.122620 647.155212,607.548401 648.113892,607.118958 
	C648.263916,607.263794 648.572998,607.543762 648.572998,607.543762 
	C647.629089,608.962402 646.685181,610.380981 645.472778,611.967407 
z"/>
<path fill="#11B5F4" opacity="1.000000" stroke="none" 
	d="
M364.665161,484.449432 
	C365.569214,485.551361 366.470093,487.007874 367.214722,488.706787 
	C366.259644,487.567444 365.460785,486.185730 364.665161,484.449432 
z"/>
<path fill="#07050B" opacity="1.000000" stroke="none" 
	d="
M685.926636,377.877502 
	C687.076477,376.894684 688.622742,375.917175 690.496094,374.831635 
	C689.323120,375.776672 687.823059,376.829742 685.926636,377.877502 
z"/>
<path fill="#6A2FE9" opacity="1.000000" stroke="none" 
	d="
M651.151184,603.131897 
	C650.431274,604.442688 649.711304,605.753418 648.782227,607.303955 
	C648.572998,607.543762 648.263916,607.263794 648.196655,606.794434 
	C649.063049,605.197266 649.996765,604.069397 650.985718,602.989075 
	C651.040955,603.036621 651.151184,603.131897 651.151184,603.131897 
z"/>
<path fill="#5F3AE9" opacity="1.000000" stroke="none" 
	d="
M328.613342,634.021118 
	C328.686890,635.019775 328.484344,636.180542 328.138855,637.668213 
	C327.504089,637.960938 327.012268,637.926697 326.152496,637.855774 
	C326.635437,636.607056 327.486359,635.395081 328.613342,634.021118 
z"/>
<path fill="#07050B" opacity="1.000000" stroke="none" 
	d="
M342.019836,673.978455 
	C340.847015,674.761719 339.674194,675.545044 338.346497,675.999023 
	C338.191650,675.669617 338.326843,675.292847 338.326843,675.292847 
	C338.326843,675.292847 338.216461,675.275146 338.534729,675.233154 
	C339.871521,674.761597 340.890045,674.332092 341.935425,673.922974 
	C341.962311,673.943298 342.019836,673.978455 342.019836,673.978455 
z"/>
<path fill="#07050B" opacity="1.000000" stroke="none" 
	d="
M476.909119,315.070831 
	C475.688293,315.529144 474.221954,315.771362 472.378418,315.980591 
	C473.555328,315.583313 475.109497,315.219025 476.909119,315.070831 
z"/>
<path fill="#7F25EB" opacity="1.000000" stroke="none" 
	d="
M328.383423,682.024292 
	C329.196838,681.130920 330.309662,680.119202 331.790436,679.109497 
	C330.999847,680.043030 329.841339,680.974487 328.383423,682.024292 
z"/>
<path fill="#07050B" opacity="1.000000" stroke="none" 
	d="
M724.312134,335.900269 
	C724.433960,334.781921 724.857239,333.565765 725.500977,332.112427 
	C725.352173,333.184326 724.982849,334.493408 724.312134,335.900269 
z"/>
<path fill="#2576D8" opacity="1.000000" stroke="none" 
	d="
M699.447266,368.085266 
	C700.018250,367.283173 700.874023,366.374390 702.085571,365.517426 
	C701.538269,366.372345 700.635132,367.175476 699.447266,368.085266 
z"/>
<path fill="#2576D8" opacity="1.000000" stroke="none" 
	d="
M374.858765,498.562988 
	C375.733307,499.034149 376.751770,499.782928 377.827118,500.876465 
	C376.923553,500.427673 375.963104,499.634125 374.858765,498.562988 
z"/>
<path fill="#2576D8" opacity="1.000000" stroke="none" 
	d="
M642.824219,471.702393 
	C642.054932,471.471924 641.115662,470.990875 640.127319,470.213257 
	C640.937012,470.428375 641.795593,470.940063 642.824219,471.702393 
z"/>
<path fill="#07050B" opacity="1.000000" stroke="none" 
	d="
M648.849121,314.070374 
	C648.237122,314.342346 647.486572,314.417816 646.373169,314.375366 
	C646.910339,314.129608 647.810547,314.001770 648.849121,314.070374 
z"/>
<path fill="#6A2FE9" opacity="1.000000" stroke="none" 
	d="
M656.428040,593.447998 
	C655.965576,594.695618 655.350281,595.784363 654.397705,596.968018 
	C654.060486,597.063049 653.947754,596.971802 653.984375,596.636597 
	C654.667419,595.194397 655.313782,594.087402 655.960205,592.980347 
	C655.960205,592.980347 656.275146,593.289124 656.428040,593.447998 
z"/>
<path fill="#07050B" opacity="1.000000" stroke="none" 
	d="
M627.058167,632.812744 
	C627.293823,631.935913 627.829163,631.044861 628.662170,630.027283 
	C628.425842,630.866638 627.891907,631.832642 627.058167,632.812744 
z"/>
<path fill="#6A2FE9" opacity="1.000000" stroke="none" 
	d="
M653.151123,599.134644 
	C652.661194,600.337646 652.171265,601.540710 651.416260,602.937805 
	C651.151184,603.131897 651.040955,603.036621 651.027954,602.657104 
	C651.658569,601.172485 652.302185,600.067383 652.997742,599.004639 
	C653.049683,599.046997 653.151123,599.134644 653.151123,599.134644 
z"/>
<path fill="#6A2FE9" opacity="1.000000" stroke="none" 
	d="
M643.066833,615.204590 
	C643.411316,614.374023 643.970947,613.361877 644.841614,612.274658 
	C644.529175,613.140808 643.905579,614.081909 643.066833,615.204590 
z"/>
<path fill="#07050B" opacity="1.000000" stroke="none" 
	d="
M377.024292,661.815796 
	C377.649323,661.404358 378.490997,661.214050 379.660400,661.062988 
	C379.072449,661.413757 378.156708,661.725342 377.024292,661.815796 
z"/>
<path fill="#5345E6" opacity="1.000000" stroke="none" 
	d="
M658.428345,488.004242 
	C657.770996,487.392212 656.961792,486.528046 656.145386,485.322266 
	C656.851013,485.904449 657.563721,486.828278 658.428345,488.004242 
z"/>
<path fill="#07050B" opacity="1.000000" stroke="none" 
	d="
M730.374268,317.886871 
	C730.086243,317.249146 730.070129,316.504639 730.009033,315.390259 
	C730.191467,315.940277 730.418823,316.860168 730.374268,317.886871 
z"/>
<path fill="#11B5F4" opacity="1.000000" stroke="none" 
	d="
M389.172668,366.717529 
	C389.114471,367.269318 388.905701,367.948029 388.417786,368.735107 
	C388.433167,368.177124 388.727631,367.510803 389.172668,366.717529 
z"/>
<path fill="#07050B" opacity="1.000000" stroke="none" 
	d="
M715.075745,352.062927 
	C714.521423,352.955627 713.967163,353.848328 713.170776,354.513672 
	C713.020508,353.866882 713.112244,353.447388 713.204041,353.027924 
	C713.204041,353.027924 713.039612,353.020935 713.311340,353.003510 
	C713.811584,352.687378 714.040161,352.388672 714.268738,352.089966 
	C714.268738,352.089966 714.153625,352.128296 714.370850,352.120850 
	C714.588013,352.113373 714.976990,351.978729 715.001099,352.000488 
	C715.025208,352.022217 715.075745,352.062927 715.075745,352.062927 
z"/>
<path fill="#7F25EB" opacity="1.000000" stroke="none" 
	d="
M332.399780,679.079285 
	C332.888977,678.487671 333.681610,677.813232 334.824341,677.136719 
	C334.350739,677.755310 333.526978,678.375854 332.399780,679.079285 
z"/>
<path fill="#11B5F4" opacity="1.000000" stroke="none" 
	d="
M399.390442,411.044617 
	C399.870544,410.430847 400.682465,409.779999 401.820770,409.109772 
	C401.338867,409.729431 400.530548,410.368500 399.390442,411.044617 
z"/>
<path fill="#07050B" opacity="1.000000" stroke="none" 
	d="
M619.126892,639.010498 
	C619.605469,638.364563 620.449707,637.664551 621.594482,636.833374 
	C621.094238,637.453613 620.293396,638.204956 619.126892,639.010498 
z"/>
<path fill="#07050B" opacity="1.000000" stroke="none" 
	d="
M695.297729,371.951294 
	C695.756653,371.343750 696.556580,370.701660 697.645874,369.944458 
	C697.169800,370.525177 696.404236,371.220947 695.297729,371.951294 
z"/>
<path fill="#07050B" opacity="1.000000" stroke="none" 
	d="
M691.117371,374.815399 
	C691.599365,374.177002 692.446472,373.546539 693.589478,372.792542 
	C693.084473,373.387085 692.283508,374.105225 691.117371,374.815399 
z"/>
<path fill="#07050B" opacity="1.000000" stroke="none" 
	d="
M624.384766,634.965027 
	C624.790039,634.333496 625.529663,633.659851 626.551697,632.871704 
	C626.129150,633.479065 625.424133,634.200989 624.384766,634.965027 
z"/>
<path fill="#7F25EB" opacity="1.000000" stroke="none" 
	d="
M337.968506,675.260681 
	C338.326843,675.292847 338.191650,675.669617 338.100098,675.847534 
	C337.249237,676.361877 336.489899,676.698303 335.423767,677.109436 
	C335.948029,676.532288 336.779114,675.880432 337.968506,675.260681 
z"/>
<path fill="#11B5F4" opacity="1.000000" stroke="none" 
	d="
M381.803894,377.329163 
	C381.666412,377.908508 381.336975,378.706299 380.706360,379.530914 
	C380.807465,378.887695 381.209717,378.217621 381.803894,377.329163 
z"/>
<path fill="#07050B" opacity="1.000000" stroke="none" 
	d="
M397.828186,438.936737 
	C397.327454,439.049652 396.775330,438.903473 396.042480,438.534058 
	C396.500122,438.433075 397.138428,438.555389 397.828186,438.936737 
z"/>
<path fill="#7F25EB" opacity="1.000000" stroke="none" 
	d="
M344.813446,671.138672 
	C344.808380,671.552124 344.483429,672.004150 344.000122,672.692017 
	C343.841736,672.927917 343.368408,672.975281 342.970886,673.075806 
	C342.573364,673.176392 342.180695,673.153381 342.180725,673.153381 
	C342.951660,672.494690 343.722595,671.835999 344.813446,671.138672 
z"/>
<path fill="#07050B" opacity="1.000000" stroke="none" 
	d="
M606.048096,646.823547 
	C606.328491,646.352295 606.822632,646.046570 607.591553,645.631287 
	C607.331482,646.010803 606.796692,646.499939 606.048096,646.823547 
z"/>
<path fill="#07050B" opacity="1.000000" stroke="none" 
	d="
M715.169800,350.084229 
	C715.562073,349.942535 715.930603,349.774872 716.567749,349.458832 
	C716.454895,350.119598 716.073486,350.928772 715.383911,351.900452 
	C715.075745,352.062927 715.025208,352.022217 715.028625,351.674225 
	C715.090637,350.892212 715.149170,350.458221 715.207703,350.024200 
	C715.207703,350.024200 715.146118,350.058228 715.169800,350.084229 
z"/>
<path fill="#3465DD" opacity="1.000000" stroke="none" 
	d="
M653.070923,481.610748 
	C652.592957,481.328735 652.038879,480.760345 651.510681,479.863068 
	C652.022644,480.130890 652.508728,480.727631 653.070923,481.610748 
z"/>
<path fill="#5345E6" opacity="1.000000" stroke="none" 
	d="
M655.078613,483.515686 
	C654.578491,483.361145 653.979492,482.946350 653.313538,482.253357 
	C653.824280,482.401917 654.401978,482.828674 655.078613,483.515686 
z"/>
<path fill="#07050B" opacity="1.000000" stroke="none" 
	d="
M623.883423,314.089050 
	C623.546631,314.322876 623.101257,314.397827 622.330811,314.362122 
	C622.595398,314.144318 623.185120,314.037231 623.883423,314.089050 
z"/>
<path fill="#2576D8" opacity="1.000000" stroke="none" 
	d="
M372.951935,496.340210 
	C373.518890,496.577240 374.087067,497.120972 374.688477,497.977539 
	C374.132233,497.742523 373.542694,497.194702 372.951935,496.340210 
z"/>
<path fill="#2576D8" opacity="1.000000" stroke="none" 
	d="
M704.781372,363.379669 
	C704.990479,362.889008 705.438049,362.235199 706.211304,361.540527 
	C706.031189,362.071960 705.525513,362.644226 704.781372,363.379669 
z"/>
<path fill="#07050B" opacity="1.000000" stroke="none" 
	d="
M544.806396,586.921753 
	C544.259338,587.186829 543.483032,587.258911 542.321411,587.255371 
	C542.816406,587.029419 543.696838,586.879150 544.806396,586.921753 
z"/>
<path fill="#5F3AE9" opacity="1.000000" stroke="none" 
	d="
M648.100708,537.284241 
	C648.562012,537.511841 649.175049,537.982300 649.889282,538.740356 
	C649.411133,538.527710 648.831726,538.027405 648.100708,537.284241 
z"/>
<path fill="#7F25EB" opacity="1.000000" stroke="none" 
	d="
M319.276733,689.950195 
	C319.367035,689.625732 319.699615,689.202026 320.316833,688.733276 
	C320.240631,689.075867 319.879822,689.463379 319.276733,689.950195 
z"/>
<path fill="#7F25EB" opacity="1.000000" stroke="none" 
	d="
M326.592590,683.442139 
	C326.723328,683.124695 327.133453,682.682373 327.843567,682.160767 
	C327.719696,682.493347 327.295807,682.905334 326.592590,683.442139 
z"/>
<path fill="#3F5ADF" opacity="1.000000" stroke="none" 
	d="
M638.919556,531.836365 
	C639.233154,531.815918 639.759888,531.940308 640.422852,532.319153 
	C640.083679,532.376160 639.608154,532.178650 638.919556,531.836365 
z"/>
<path fill="#2576D8" opacity="1.000000" stroke="none" 
	d="
M698.371948,368.971252 
	C698.369812,368.754242 698.592651,368.461273 699.000793,368.169922 
	C699.082275,368.488129 698.885925,368.729340 698.371948,368.971252 
z"/>
<path fill="#11B5F4" opacity="1.000000" stroke="none" 
	d="
M390.537048,365.060303 
	C390.555756,365.416870 390.325409,365.936249 389.907654,366.683655 
	C389.909515,366.348877 390.098755,365.785980 390.537048,365.060303 
z"/>
<path fill="#2576D8" opacity="1.000000" stroke="none" 
	d="
M712.986572,353.242035 
	C713.112244,353.447388 713.020508,353.866882 712.845947,354.596100 
	C712.763123,354.905853 712.395325,354.971893 712.219727,355.035278 
	C712.285767,354.551147 712.527405,354.003662 712.986572,353.242035 
z"/>
<path fill="#7F25EB" opacity="1.000000" stroke="none" 
	d="
M317.719452,691.446655 
	C317.812317,691.137146 318.149841,690.676941 318.768555,690.125244 
	C318.687866,690.454590 318.325989,690.875305 317.719452,691.446655 
z"/>
<path fill="#6A2FE9" opacity="1.000000" stroke="none" 
	d="
M654.114685,597.111145 
	C654.010559,597.728149 653.852173,598.296997 653.422485,599.000244 
	C653.151123,599.134644 653.049683,599.046997 653.075684,598.733521 
	C653.383667,597.937256 653.665710,597.454529 653.947754,596.971802 
	C653.947754,596.971802 654.060486,597.063049 654.114685,597.111145 
z"/>
<path fill="#3F5ADF" opacity="1.000000" stroke="none" 
	d="
M640.758545,532.624512 
	C640.930298,532.503296 641.221069,532.636719 641.669067,532.969360 
	C641.529480,533.029846 641.213196,532.933411 640.758545,532.624512 
z"/>
<path fill="#7F25EB" opacity="1.000000" stroke="none" 
	d="
M320.941956,688.437561 
	C320.766205,688.229614 320.889801,687.999146 321.370239,687.821655 
	C321.447601,688.003235 321.285675,688.183411 320.941956,688.437561 
z"/>
<path fill="#7F25EB" opacity="1.000000" stroke="none" 
	d="
M316.276855,692.033325 
	C316.269684,691.879089 316.549408,691.684814 317.040955,691.345703 
	C317.023102,691.465088 316.793427,691.729187 316.276855,692.033325 
z"/>
<path fill="#7F25EB" opacity="1.000000" stroke="none" 
	d="
M315.276093,693.010864 
	C315.234344,692.831177 315.462921,692.581055 315.886414,692.167603 
	C315.903015,692.316284 315.724731,692.628357 315.276093,693.010864 
z"/>
<path fill="#07050B" opacity="1.000000" stroke="none" 
	d="
M392.795471,436.750824 
	C392.654755,436.802063 392.315033,436.699402 391.844421,436.351746 
	C392.007812,436.270172 392.302185,436.433563 392.795471,436.750824 
z"/>
<path fill="#07050B" opacity="1.000000" stroke="none" 
	d="
M398.788116,439.670471 
	C398.659882,439.714325 398.338776,439.620422 397.891266,439.296814 
	C398.047577,439.211700 398.324402,439.366913 398.788116,439.670471 
z"/>
<path fill="#07050B" opacity="1.000000" stroke="none" 
	d="
M342.166626,673.124756 
	C342.180695,673.153381 342.573364,673.176392 342.768494,673.200806 
	C342.772247,673.414856 342.568359,673.589844 342.185883,673.864380 
	C342.019836,673.978455 341.962311,673.943298 342.002258,673.729980 
	C342.042206,673.516663 342.197205,673.138794 342.197205,673.138794 
	C342.197205,673.138794 342.152527,673.096191 342.166626,673.124756 
z"/>
<path fill="#2576D8" opacity="1.000000" stroke="none" 
	d="
M706.657227,361.358337 
	C706.606567,361.185822 706.805237,360.876404 707.235962,360.409180 
	C707.280884,360.574707 707.093750,360.898071 706.657227,361.358337 
z"/>
<path fill="#07050B" opacity="1.000000" stroke="none" 
	d="
M718.363525,346.779480 
	C718.193054,346.611298 718.309082,346.341583 718.771423,346.016174 
	C718.819031,346.140350 718.663086,346.379517 718.363525,346.779480 
z"/>
<path fill="#5F3AE9" opacity="1.000000" stroke="none" 
	d="
M624.684692,566.899170 
	C624.728577,567.072876 624.510864,567.350464 624.091309,567.798828 
	C624.067322,567.647400 624.245178,567.325195 624.684692,566.899170 
z"/>
<path fill="#2576D8" opacity="1.000000" stroke="none" 
	d="
M702.616943,365.388489 
	C702.580994,365.216156 702.799805,364.921906 703.263306,364.490601 
	C703.296021,364.657867 703.083862,364.962250 702.616943,365.388489 
z"/>
<path fill="#2576D8" opacity="1.000000" stroke="none" 
	d="
M703.678955,364.401672 
	C703.639893,364.235687 703.841492,363.935547 704.285400,363.499939 
	C704.324951,363.665466 704.122253,363.966492 703.678955,364.401672 
z"/>
<path fill="#5F3AE9" opacity="1.000000" stroke="none" 
	d="
M329.666199,632.883484 
	C329.704071,633.053711 329.477051,633.337158 329.041626,633.797668 
	C329.022583,633.648743 329.211914,633.322754 329.666199,632.883484 
z"/>
<path fill="#5F3AE9" opacity="1.000000" stroke="none" 
	d="
M340.710876,621.081360 
	C340.754669,621.315857 340.504089,621.518188 340.014496,621.802734 
	C340.015472,621.638916 340.229156,621.360352 340.710876,621.081360 
z"/>
<path fill="#0D91D0" opacity="1.000000" stroke="none" 
	d="
M603.772705,320.961090 
	C607.965698,320.076569 611.750000,319.243195 615.514832,318.329834 
	C618.466553,317.613708 621.378052,316.216614 624.335632,316.134155 
	C634.234192,315.858124 644.145447,316.036346 654.381958,316.371155 
	C652.809570,317.633301 650.974121,318.749512 648.994202,319.467560 
	C631.981506,325.637329 614.676086,331.094147 597.986267,338.034058 
	C581.150696,345.034607 564.105347,351.732635 548.956543,362.423004 
	C541.879150,367.417419 533.553711,370.646606 525.782104,374.652924 
	C517.625854,378.857605 509.117706,382.581512 504.013458,390.877563 
	C491.947937,390.877563 479.882416,390.877563 467.816895,390.877563 
	C467.554535,390.236664 467.292175,389.595734 467.029816,388.954834 
	C471.512573,385.846344 475.758575,382.304718 480.518372,379.703064 
	C502.975006,367.428802 525.382751,355.038208 548.200378,343.462555 
	C559.442993,337.758972 571.546082,333.756104 583.240051,328.935791 
	C589.044312,326.543213 594.804077,324.042572 600.720093,321.283020 
	C601.689453,320.976074 602.522522,320.976898 603.772705,320.961090 
z"/>
<path fill="#11B5F4" opacity="1.000000" stroke="none" 
	d="
M385.555298,432.109497 
	C385.857849,432.144470 385.956238,432.552002 386.040009,432.743652 
	C385.583893,432.697510 385.044006,432.459747 384.286194,432.015991 
	C384.463104,431.898193 384.857910,431.986389 385.555298,432.109497 
z"/>
<path fill="#11B5F4" opacity="1.000000" stroke="none" 
	d="
M388.212585,435.083679 
	C388.584869,435.056396 389.213104,435.212616 390.041473,435.629761 
	C389.650574,435.682831 389.059540,435.475006 388.212585,435.083679 
z"/>
<path fill="#11B5F4" opacity="1.000000" stroke="none" 
	d="
M387.254944,433.949585 
	C387.379333,433.976410 387.665527,434.221832 388.010651,434.750671 
	C387.851990,434.745453 387.634399,434.456787 387.254944,433.949585 
z"/>
<path fill="#2C6CDA" opacity="1.000000" stroke="none" 
	d="
M629.755859,465.750977 
	C616.949707,471.533478 604.069031,477.538269 590.808472,482.534698 
	C562.466431,493.213593 533.411621,501.524261 503.360413,505.752808 
	C485.525055,508.262421 467.495697,509.469482 449.728119,512.341797 
	C443.849884,513.292114 438.091156,513.844177 432.209961,514.237488 
	C430.166687,514.374146 428.237823,516.221985 426.128662,517.612061 
	C419.242249,516.600708 412.483826,515.265686 405.725433,513.930603 
	C405.695709,513.399231 405.665985,512.867798 405.636292,512.336426 
	C406.687012,511.876984 407.696228,511.201019 408.794647,510.990540 
	C426.086823,507.676788 443.372467,504.322540 460.703613,501.223450 
	C465.254822,500.409607 469.954926,500.428223 474.586761,500.065582 
	C495.980499,498.390594 517.112854,495.122650 537.642517,488.769592 
	C547.112183,485.839172 556.350464,482.152893 565.664062,478.728851 
	C574.841858,475.354767 584.054626,472.057068 593.112854,468.382874 
	C598.773071,466.086975 604.098145,462.971680 609.733154,460.603638 
	C611.909851,459.688904 614.805115,458.974731 616.886536,459.655823 
	C621.264526,461.088470 625.320801,463.504059 629.755859,465.750977 
z"/>
<path fill="#722AEA" opacity="1.000000" stroke="none" 
	d="
M653.984375,596.636597 
	C653.665710,597.454529 653.383667,597.937256 653.023682,598.691162 
	C652.302185,600.067383 651.658569,601.172485 650.972717,602.609558 
	C649.996765,604.069397 649.063049,605.197266 648.046631,606.649658 
	C647.155212,607.548401 646.346436,608.122620 645.283203,608.848877 
	C643.352783,609.238770 641.563782,609.178955 640.019897,609.764954 
	C632.570129,612.592346 625.282043,615.869507 617.759460,618.476135 
	C601.761963,624.019348 585.719299,629.450073 569.575317,634.547546 
	C552.019043,640.090820 534.339355,645.246094 516.676880,650.446167 
	C514.657410,651.040771 512.337280,650.569397 510.274536,651.074341 
	C508.031250,651.623474 505.935333,652.760559 503.756592,653.592712 
	C502.418671,654.103699 501.066956,654.825928 499.684540,654.921997 
	C496.704681,655.129028 493.700531,654.960510 490.707123,655.003052 
	C469.442444,655.305176 448.177917,655.621826 426.442627,655.902222 
	C427.185242,649.621643 432.870575,650.032898 437.005035,649.271362 
	C451.533661,646.595154 466.199341,644.673218 480.784973,642.293213 
	C495.332092,639.919250 509.911194,637.661133 524.346802,634.717163 
	C531.962158,633.164124 539.325562,630.332031 546.760620,627.946167 
	C567.128784,621.410156 587.621094,615.216431 607.766174,608.049316 
	C617.520020,604.579163 626.511230,599.016113 636.034607,594.825317 
	C640.718445,592.764160 645.770935,591.416565 650.779724,590.296631 
	C652.225769,589.973267 654.099365,591.561951 655.868530,592.627197 
	C655.313782,594.087402 654.667419,595.194397 653.984375,596.636597 
z"/>
<path fill="#1D7ED5" opacity="1.000000" stroke="none" 
	d="
M708.989502,316.047791 
	C715.014648,316.036285 721.039856,316.024780 727.528748,316.081146 
	C727.357178,323.690460 720.470337,324.910065 715.614258,326.564789 
	C700.547424,331.698822 684.877808,335.067932 669.823425,340.233215 
	C657.614563,344.422150 645.955750,350.214447 634.053772,355.297455 
	C630.235107,356.928284 626.311890,358.355072 622.621887,360.238495 
	C611.832092,365.745789 601.164246,371.491913 590.382202,377.014771 
	C587.742188,378.367035 584.592468,378.822052 582.125427,380.393463 
	C577.328308,383.448975 572.848755,387.002930 568.103516,390.655457 
	C559.294861,390.958618 550.620422,390.956726 541.606934,390.628723 
	C546.145691,387.212463 550.880432,383.861298 555.934692,381.093536 
	C563.498962,376.951263 571.391052,373.407684 578.956299,369.267120 
	C589.547791,363.470337 599.636292,356.652496 610.537781,351.548309 
	C626.608582,344.023834 643.063660,337.253815 659.633606,330.887512 
	C669.187317,327.216888 679.245911,324.812195 689.161194,322.150208 
	C694.592285,320.692047 700.226196,320.002197 705.703064,318.691803 
	C706.938660,318.396149 707.901245,316.959320 708.989502,316.047791 
z"/>
<path fill="#4A4EE2" opacity="1.000000" stroke="none" 
	d="
M661.584290,497.021820 
	C664.004517,502.919037 666.015137,508.810364 668.042480,514.750732 
	C660.217163,516.617798 653.228210,517.852112 646.546387,520.029297 
	C641.953857,521.525696 637.787842,524.330872 633.178345,526.791138 
	C623.806763,525.159851 614.693359,523.261841 605.565857,521.434204 
	C602.953186,520.911072 600.299561,520.591858 597.664734,520.179077 
	C597.573547,519.627808 597.482361,519.076538 597.391174,518.525269 
	C600.843018,516.791077 604.144409,514.603333 607.772400,513.400513 
	C624.207214,507.951477 640.729553,502.765686 657.237671,497.539764 
	C658.480713,497.146271 659.859192,497.180511 661.584290,497.021820 
z"/>
<path fill="#2576D8" opacity="1.000000" stroke="none" 
	d="
M714.993896,350.256165 
	C715.149170,350.458221 715.090637,350.892212 715.004517,351.652466 
	C714.976990,351.978729 714.588013,352.113373 714.392456,352.177551 
	C714.391235,351.657227 714.585632,351.072693 714.993896,350.256165 
z"/>
<path fill="#2576D8" opacity="1.000000" stroke="none" 
	d="
M714.039307,352.244690 
	C714.040161,352.388672 713.811584,352.687378 713.308350,353.085754 
	C713.292419,352.923431 713.551086,352.661438 714.039307,352.244690 
z"/>
<path fill="#7F25EB" opacity="1.000000" stroke="none" 
	d="
M348.991455,669.611206 
	C348.133057,670.195923 346.926788,670.639709 345.390106,671.126099 
	C346.254333,670.602600 347.448975,670.036438 348.991455,669.611206 
z"/>
<path fill="#7F25EB" opacity="1.000000" stroke="none" 
	d="
M341.831970,673.131470 
	C342.197205,673.138794 342.042206,673.516663 341.975403,673.709595 
	C340.890045,674.332092 339.871521,674.761597 338.530457,675.288818 
	C339.294189,674.632385 340.380463,673.878235 341.831970,673.131470 
z"/>
<path fill="#108CD2" opacity="1.000000" stroke="none" 
	d="
M504.479736,390.905762 
	C509.117706,382.581512 517.625854,378.857605 525.782104,374.652924 
	C533.553711,370.646606 541.879150,367.417419 548.956543,362.423004 
	C564.105347,351.732635 581.150696,345.034607 597.986267,338.034058 
	C614.676086,331.094147 631.981506,325.637329 648.994202,319.467560 
	C650.974121,318.749512 652.809570,317.633301 654.849365,316.390686 
	C662.006226,316.060669 669.025696,316.041656 676.382446,316.354919 
	C674.546570,317.822998 672.481201,319.293793 670.180725,320.033661 
	C662.440857,322.522827 654.377380,324.159760 646.874390,327.200317 
	C629.828308,334.108276 612.939575,341.432068 596.192200,349.038788 
	C587.514771,352.980011 579.250122,357.838287 570.844788,362.367340 
	C563.999573,366.055725 557.068665,369.620575 550.452820,373.690582 
	C541.498962,379.198944 532.809998,385.137878 524.007385,390.892090 
	C517.653564,390.906036 511.299805,390.919983 504.479736,390.905762 
z"/>
<path fill="#1A80D5" opacity="1.000000" stroke="none" 
	d="
M524.473572,390.918213 
	C532.809998,385.137878 541.498962,379.198944 550.452820,373.690582 
	C557.068665,369.620575 563.999573,366.055725 570.844788,362.367340 
	C579.250122,357.838287 587.514771,352.980011 596.192200,349.038788 
	C612.939575,341.432068 629.828308,334.108276 646.874390,327.200317 
	C654.377380,324.159760 662.440857,322.522827 670.180725,320.033661 
	C672.481201,319.293793 674.546570,317.822998 676.849243,316.377197 
	C687.337891,316.042847 697.696960,316.018433 708.522766,316.020905 
	C707.901245,316.959320 706.938660,318.396149 705.703064,318.691803 
	C700.226196,320.002197 694.592285,320.692047 689.161194,322.150208 
	C679.245911,324.812195 669.187317,327.216888 659.633606,330.887512 
	C643.063660,337.253815 626.608582,344.023834 610.537781,351.548309 
	C599.636292,356.652496 589.547791,363.470337 578.956299,369.267120 
	C571.391052,373.407684 563.498962,376.951263 555.934692,381.093536 
	C550.880432,383.861298 546.145691,387.212463 541.139648,390.601135 
	C535.654175,390.914581 530.296997,390.929413 524.473572,390.918213 
z"/>
</svg>